<svg xmlns="http://www.w3.org/2000/svg" xmlns:xlink="http://www.w3.org/1999/xlink" width="100" zoomAndPan="magnify" viewBox="100 138 150 100" height="100" preserveAspectRatio="xMidYMid meet" version="1.0"><defs><clipPath id="a9ede2d2bd"><path d="M 141 237 L 176 237 L 176 262.5 L 141 262.5 Z M 141 237 " clip-rule="nonzero"/></clipPath></defs><path fill="#fe7624" d="M 231.457031 126.675781 C 231.925781 125.03125 234.445312 117.835938 232.609375 116.5 C 229.929688 114.546875 226.507812 121.679688 225.695312 123.046875 C 221.335938 130.210938 213.457031 149.96875 213.457031 149.96875 C 213.457031 149.96875 203.367188 158.933594 203.273438 158.808594 C 203.242188 158.777344 203.398438 158.5625 203.398438 158.53125 C 204.957031 155.117188 211.183594 143.828125 213.300781 139.238281 C 214.113281 137.46875 219.625 118.984375 218.410156 117.214844 C 215.109375 112.5 209.75 124.007812 209.128906 125.527344 C 204.175781 137.46875 197.605469 147.984375 187.859375 156.886719 C 185.367188 159.148438 176.960938 163.863281 176.992188 163.523438 C 177.113281 160.234375 179.234375 156.453125 180.476562 153.503906 C 182.035156 149.875 188.480469 147.117188 192.3125 143.019531 C 194.554688 140.664062 196.265625 135.113281 195.207031 133.652344 C 194.742188 133.035156 190.195312 137.46875 189.136719 138.058594 C 182.65625 141.59375 179.046875 141.46875 175.992188 143.546875 C 174.21875 144.757812 173.191406 147.023438 170.480469 150.402344 C 165.125 157.101562 161.078125 165.476562 153.324219 177.511719 C 148.152344 185.546875 152.324219 200.464844 149.679688 213.121094 C 148.339844 219.539062 144.167969 242.027344 144.167969 242.027344 C 144.167969 242.027344 153.820312 250.402344 158.960938 251.984375 C 164.097656 253.535156 175.058594 251.457031 175.058594 251.457031 C 175.058594 251.457031 176.835938 232.722656 181.039062 227.574219 C 187.359375 219.789062 196.453125 215.292969 203.898438 208.871094 C 207.230469 205.988281 209.128906 201.953125 212.304688 198.914062 C 215.699219 195.65625 220.027344 192.679688 222.207031 188.335938 C 222.988281 186.753906 226.597656 172.582031 226.628906 171.089844 C 226.660156 169.539062 225.695312 168.671875 225.386719 167.277344 C 224.792969 164.734375 225.851562 161.539062 226.195312 159.027344 C 227.003906 152.824219 228.5 146.835938 229.464844 140.726562 C 229.746094 138.894531 228.71875 137.46875 228.839844 135.730469 C 229.089844 132.660156 230.648438 129.558594 231.457031 126.675781 Z M 214.734375 179.21875 C 214.734375 179.21875 214.019531 183.09375 211.058594 185.761719 C 210.777344 186.011719 209.65625 187.28125 209.160156 186.816406 C 208.816406 186.507812 214.421875 179.558594 214.578125 179.40625 C 214.609375 179.375 214.703125 179.25 214.734375 179.21875 C 214.765625 179.1875 214.765625 179.1875 214.734375 179.21875 Z M 214.734375 179.21875 " fill-opacity="1" fill-rule="evenodd"/><path fill="#fcf9a9" d="M 195.238281 133.375 C 194.429688 133.53125 192.25 135.296875 189.882812 136.847656 C 186.769531 138.863281 183.375 140.507812 183.375 140.507812 C 183.375 140.507812 185.304688 143.515625 188.109375 143.332031 C 189.789062 143.238281 194.179688 138.988281 194.617188 138.554688 C 195.644531 137.4375 196.953125 133.035156 195.238281 133.375 Z M 218.597656 118.082031 C 218.285156 116.347656 217.101562 117.152344 217.070312 117.152344 C 214.203125 119.292969 210.996094 130.054688 211.027344 130.117188 C 211.058594 130.117188 212.304688 131.328125 213.582031 131.359375 C 214.765625 131.359375 215.980469 130.210938 216.042969 130.179688 C 216.261719 130.085938 219.15625 121.152344 218.597656 118.082031 Z M 232.921875 117.679688 C 232.921875 117.679688 232.421875 116.4375 230.585938 118.144531 C 228.71875 119.851562 227.472656 123.417969 226.628906 125.867188 C 226.507812 126.210938 225.851562 127.792969 226.289062 128.164062 C 226.660156 128.472656 227.503906 128.503906 227.96875 128.597656 C 228.5625 128.722656 229.214844 128.816406 229.808594 129 C 229.871094 129 230.617188 129.3125 230.648438 129.28125 C 230.898438 129 234.476562 118.734375 232.921875 117.679688 Z M 232.921875 117.679688 " fill-opacity="1" fill-rule="evenodd"/><path fill="#d700df" d="M 195.894531 133.621094 C 195.363281 134.058594 194.804688 134.460938 194.242188 134.863281 C 194.054688 134.644531 193.871094 134.398438 193.683594 134.210938 C 193.527344 134.304688 193.339844 134.429688 193.183594 134.554688 C 193.308594 134.800781 193.433594 135.050781 193.527344 135.296875 C 193.527344 135.328125 193.558594 135.328125 193.558594 135.359375 C 193.339844 135.515625 193.152344 135.640625 192.933594 135.792969 C 192.53125 136.042969 192.15625 136.320312 191.75 136.570312 C 191.597656 136.351562 191.410156 136.167969 191.253906 135.949219 C 191.066406 136.074219 190.878906 136.195312 190.660156 136.351562 C 190.785156 136.570312 190.910156 136.816406 191.035156 137.035156 C 190.878906 137.128906 190.722656 137.222656 190.597656 137.3125 C 190.132812 137.59375 189.695312 137.902344 189.230469 138.183594 C 189.074219 137.996094 188.917969 137.777344 188.730469 137.59375 C 188.542969 137.71875 188.355469 137.808594 188.171875 137.933594 C 188.292969 138.152344 188.417969 138.398438 188.542969 138.617188 C 188.449219 138.679688 188.355469 138.742188 188.234375 138.800781 L 187.082031 139.546875 C 186.863281 139.328125 186.644531 139.144531 186.425781 138.925781 C 186.238281 139.019531 186.050781 139.144531 185.867188 139.238281 C 186.050781 139.484375 186.238281 139.734375 186.425781 139.980469 L 185.617188 140.507812 L 184.746094 141.035156 C 184.714844 141.066406 184.621094 141.160156 184.558594 141.191406 C 184.433594 141.160156 184.308594 141.222656 184.246094 141.347656 C 184.214844 141.4375 184.214844 141.5 184.214844 141.5625 C 184.277344 141.625 184.339844 141.6875 184.402344 141.75 C 184.433594 141.75 184.464844 141.75 184.496094 141.75 C 184.527344 141.75 184.621094 141.71875 184.683594 141.6875 C 184.777344 141.65625 184.898438 141.5625 184.992188 141.53125 L 185.929688 141.066406 C 186.238281 140.910156 186.550781 140.726562 186.863281 140.570312 C 186.957031 140.695312 187.050781 140.820312 187.140625 140.941406 C 187.265625 141.097656 187.390625 141.253906 187.515625 141.40625 C 187.609375 141.5 187.703125 141.59375 187.765625 141.6875 C 187.546875 141.8125 187.359375 141.964844 187.140625 142.089844 L 186.550781 142.460938 C 186.519531 142.492188 186.425781 142.554688 186.332031 142.617188 C 186.300781 142.617188 186.269531 142.617188 186.238281 142.617188 L 186.269531 142.617188 C 186.269531 142.617188 186.300781 142.617188 186.300781 142.617188 C 186.269531 142.648438 186.238281 142.648438 186.238281 142.617188 C 186.238281 142.617188 186.207031 142.617188 186.207031 142.648438 C 186.019531 142.742188 186.050781 142.898438 186.050781 142.929688 C 186.175781 142.988281 186.332031 143.050781 186.457031 143.113281 C 186.550781 143.082031 186.707031 143.019531 186.800781 142.960938 L 187.453125 142.648438 C 187.703125 142.523438 187.984375 142.371094 188.234375 142.214844 C 188.386719 142.402344 188.667969 142.679688 188.824219 142.835938 C 188.855469 142.867188 188.855469 142.867188 188.886719 142.898438 C 188.855469 142.835938 188.855469 142.804688 188.855469 142.773438 C 188.855469 142.804688 188.855469 142.867188 188.886719 142.898438 C 188.886719 142.898438 188.886719 142.898438 188.886719 142.929688 C 188.917969 142.988281 189.011719 143.050781 189.074219 143.050781 C 189.136719 143.019531 189.230469 142.960938 189.324219 142.929688 C 189.355469 142.867188 189.382812 142.773438 189.324219 142.648438 C 189.324219 142.617188 189.292969 142.585938 189.261719 142.554688 C 189.167969 142.402344 189.011719 142.121094 188.886719 141.90625 C 189.136719 141.75 189.382812 141.625 189.632812 141.46875 C 189.851562 141.347656 190.070312 141.191406 190.289062 141.066406 C 190.414062 141.222656 190.566406 141.378906 190.660156 141.46875 C 190.722656 141.53125 190.753906 141.5625 190.753906 141.5625 C 190.910156 141.6875 191.035156 141.625 191.066406 141.625 C 191.191406 141.5625 191.253906 141.40625 191.191406 141.285156 C 191.191406 141.253906 191.160156 141.222656 191.128906 141.222656 L 191.097656 141.222656 L 191.128906 141.222656 C 191.128906 141.222656 191.128906 141.191406 191.097656 141.191406 C 191.035156 141.097656 190.941406 140.910156 190.847656 140.726562 C 191.003906 140.632812 191.128906 140.539062 191.285156 140.445312 C 191.78125 140.105469 192.28125 139.765625 192.777344 139.390625 C 192.933594 139.546875 193.152344 139.734375 193.246094 139.855469 C 193.246094 139.828125 193.277344 139.765625 193.277344 139.734375 C 193.277344 139.765625 193.246094 139.828125 193.277344 139.855469 C 193.277344 139.886719 193.277344 139.886719 193.308594 139.886719 C 193.464844 139.765625 193.589844 139.640625 193.714844 139.515625 C 193.652344 139.359375 193.464844 139.113281 193.339844 138.925781 C 193.929688 138.460938 194.492188 137.933594 195.019531 137.40625 C 195.050781 137.4375 195.113281 137.46875 195.144531 137.46875 C 195.207031 137.46875 195.269531 137.46875 195.332031 137.4375 C 195.363281 137.34375 195.425781 137.25 195.457031 137.160156 C 195.457031 137.128906 195.425781 137.066406 195.425781 137.003906 C 195.488281 136.941406 195.550781 136.878906 195.613281 136.816406 C 195.675781 136.632812 195.738281 136.445312 195.800781 136.257812 C 195.800781 136.257812 195.800781 136.226562 195.769531 136.226562 C 195.644531 136.105469 195.457031 136.105469 195.363281 136.226562 C 195.300781 136.289062 195.207031 136.351562 195.144531 136.414062 C 195.113281 136.382812 195.113281 136.351562 195.082031 136.320312 C 194.992188 136.136719 194.898438 135.949219 194.804688 135.761719 C 194.773438 135.699219 194.710938 135.609375 194.679688 135.546875 C 195.144531 135.171875 195.613281 134.769531 196.082031 134.335938 C 196.050781 134.027344 195.988281 133.777344 195.894531 133.621094 Z M 184.433594 141.191406 C 184.402344 141.128906 184.464844 141.160156 184.527344 141.191406 C 184.464844 141.191406 184.433594 141.222656 184.433594 141.191406 Z M 191.097656 141.097656 C 191.035156 141.066406 190.972656 141.066406 190.910156 141.066406 C 190.972656 141.035156 191.035156 141.035156 191.097656 141.097656 Z M 188.949219 142.554688 C 188.917969 142.585938 188.886719 142.648438 188.886719 142.710938 C 188.886719 142.617188 188.917969 142.585938 188.949219 142.554688 Z M 189.199219 140.664062 C 188.949219 140.820312 188.730469 141.003906 188.480469 141.160156 C 188.386719 141.035156 188.324219 140.910156 188.234375 140.789062 C 188.109375 140.632812 187.984375 140.476562 187.859375 140.324219 C 187.796875 140.230469 187.734375 140.167969 187.640625 140.074219 C 187.984375 139.886719 188.355469 139.671875 188.699219 139.484375 C 188.792969 139.421875 188.886719 139.359375 189.011719 139.300781 C 189.042969 139.328125 189.074219 139.390625 189.105469 139.421875 C 189.199219 139.578125 189.324219 139.734375 189.445312 139.886719 C 189.539062 140.011719 189.664062 140.167969 189.757812 140.292969 C 189.570312 140.414062 189.382812 140.539062 189.199219 140.664062 Z M 191.097656 139.359375 C 190.878906 139.515625 190.660156 139.671875 190.445312 139.828125 C 190.351562 139.671875 190.257812 139.515625 190.164062 139.390625 C 190.070312 139.238281 189.945312 139.082031 189.851562 138.925781 C 189.820312 138.894531 189.820312 138.894531 189.789062 138.863281 C 190.101562 138.679688 190.414062 138.492188 190.691406 138.304688 C 190.972656 138.121094 191.253906 137.964844 191.503906 137.777344 C 191.625 137.933594 191.75 138.121094 191.84375 138.277344 C 191.9375 138.398438 192.03125 138.523438 192.125 138.617188 C 191.8125 138.863281 191.441406 139.113281 191.097656 139.359375 Z M 192.964844 138.058594 C 192.933594 138.089844 192.902344 138.121094 192.871094 138.121094 C 192.808594 137.996094 192.71875 137.871094 192.625 137.75 C 192.53125 137.59375 192.40625 137.40625 192.28125 137.25 C 192.40625 137.160156 192.53125 137.097656 192.65625 137.003906 C 193.089844 136.695312 193.527344 136.382812 193.929688 136.042969 C 193.960938 136.074219 193.992188 136.136719 194.023438 136.167969 C 194.148438 136.351562 194.273438 136.507812 194.398438 136.664062 C 194.429688 136.695312 194.492188 136.753906 194.554688 136.816406 C 194.023438 137.25 193.496094 137.65625 192.964844 138.058594 Z M 186.269531 142.585938 C 186.238281 142.554688 186.269531 142.554688 186.269531 142.585938 Z M 226.847656 128.039062 C 226.847656 128.070312 226.878906 128.101562 226.847656 128.101562 L 226.847656 128.039062 C 226.847656 128.070312 226.847656 128.070312 226.847656 128.039062 Z M 229.527344 128.90625 Z M 229.527344 128.90625 Z M 188.917969 142.835938 C 188.917969 142.867188 188.917969 142.835938 188.917969 142.835938 Z M 193.246094 139.765625 C 193.246094 139.765625 193.214844 139.765625 193.246094 139.765625 C 193.246094 139.734375 193.246094 139.765625 193.246094 139.765625 Z M 232.921875 120.160156 C 232.796875 120.160156 232.640625 120.128906 232.578125 120.097656 C 232.765625 119.355469 232.921875 118.578125 233.078125 117.835938 C 233.046875 117.773438 232.984375 117.710938 232.921875 117.679688 C 232.921875 117.679688 232.828125 117.433594 232.546875 117.308594 C 232.296875 118.238281 232.019531 119.167969 231.738281 120.097656 L 231.457031 120.097656 C 231.144531 120.097656 230.804688 120.097656 230.492188 120.097656 C 230.679688 119.324219 230.867188 118.578125 231.050781 117.804688 C 231.050781 117.773438 231.050781 117.742188 231.050781 117.742188 C 230.898438 117.867188 230.742188 117.988281 230.554688 118.144531 C 230.429688 118.269531 230.304688 118.363281 230.210938 118.488281 C 230.023438 119.011719 229.839844 119.570312 229.683594 120.097656 C 229.621094 120.097656 229.558594 120.097656 229.496094 120.097656 C 229.339844 120.097656 229.183594 120.097656 229.027344 120.097656 C 228.1875 121.527344 227.503906 123.261719 226.972656 124.78125 C 226.972656 124.84375 226.941406 124.90625 226.941406 125 L 226.785156 125.835938 C 226.722656 125.835938 226.691406 125.835938 226.628906 125.835938 C 226.597656 125.960938 226.507812 126.179688 226.414062 126.425781 C 226.507812 126.457031 226.566406 126.457031 226.660156 126.488281 L 226.566406 126.953125 L 226.414062 127.730469 C 226.414062 127.761719 226.351562 128.007812 226.351562 128.070312 C 226.351562 128.101562 226.351562 128.164062 226.382812 128.195312 C 226.476562 128.257812 226.597656 128.320312 226.722656 128.351562 C 226.722656 128.351562 226.722656 128.351562 226.753906 128.351562 C 226.847656 128.320312 226.910156 128.195312 226.910156 128.101562 C 226.878906 128.101562 226.878906 128.070312 226.910156 128.039062 L 226.910156 128.070312 L 226.910156 128.039062 C 226.941406 127.976562 227.003906 127.914062 227.003906 127.882812 L 227.253906 127.140625 L 227.378906 126.675781 C 227.566406 126.707031 227.71875 126.738281 227.90625 126.769531 C 227.9375 126.769531 227.96875 126.769531 228 126.769531 L 227.8125 127.667969 L 227.65625 128.472656 C 227.65625 128.472656 227.65625 128.503906 227.65625 128.535156 C 227.78125 128.566406 227.90625 128.566406 228 128.597656 C 228.0625 128.628906 228.15625 128.628906 228.21875 128.628906 C 228.21875 128.628906 228.21875 128.597656 228.21875 128.597656 L 228.4375 127.792969 L 228.71875 126.800781 C 228.964844 126.828125 229.214844 126.800781 229.496094 126.828125 L 230.023438 126.828125 C 229.960938 127.078125 229.929688 127.328125 229.871094 127.574219 L 229.652344 128.597656 C 229.652344 128.628906 229.652344 128.785156 229.621094 128.878906 C 229.621094 128.878906 229.621094 128.90625 229.621094 128.90625 C 229.714844 128.9375 229.777344 128.9375 229.871094 128.96875 C 229.898438 128.96875 229.992188 129 230.085938 129.0625 C 230.148438 128.9375 230.210938 128.785156 230.210938 128.753906 L 230.523438 127.761719 L 230.773438 126.890625 C 230.867188 126.921875 231.019531 126.921875 231.082031 126.953125 C 231.082031 126.953125 231.113281 126.953125 231.113281 126.953125 C 231.144531 126.984375 231.207031 126.984375 231.238281 126.984375 C 231.300781 126.984375 231.582031 126.613281 231.238281 126.457031 C 231.175781 126.425781 231.050781 126.363281 230.929688 126.332031 L 231.269531 125.1875 C 231.394531 124.8125 231.488281 124.441406 231.613281 124.070312 C 231.675781 124.070312 231.769531 124.039062 231.800781 124.039062 C 231.800781 124.039062 231.832031 124.039062 231.832031 124.039062 C 231.832031 124.039062 231.800781 124.039062 231.800781 124.007812 C 231.800781 124.007812 231.800781 124.007812 231.832031 124.007812 C 231.832031 124.007812 231.863281 124.007812 231.832031 124.007812 C 231.863281 124.007812 231.925781 124.007812 231.988281 124.007812 C 232.113281 123.976562 232.203125 123.820312 232.171875 123.695312 C 232.171875 123.636719 232.113281 123.574219 232.019531 123.511719 C 231.988281 123.480469 231.894531 123.480469 231.800781 123.480469 C 231.800781 123.480469 231.769531 123.480469 231.769531 123.480469 C 231.800781 123.386719 231.832031 123.324219 231.832031 123.230469 C 232.019531 122.582031 232.171875 121.929688 232.328125 121.277344 C 232.359375 121.121094 232.390625 120.96875 232.421875 120.8125 C 232.515625 120.78125 232.578125 120.78125 232.671875 120.75 C 232.796875 120.71875 233.078125 120.6875 233.171875 120.65625 C 233.203125 120.472656 233.234375 120.285156 233.234375 120.097656 C 233.140625 120.007812 232.984375 120.039062 232.921875 120.160156 Z M 226.660156 127.855469 C 226.628906 127.855469 226.660156 127.855469 226.660156 127.855469 Z M 229.621094 128.878906 Z M 229.714844 128.847656 C 229.777344 128.847656 229.839844 128.878906 229.871094 128.9375 C 229.839844 128.878906 229.777344 128.878906 229.714844 128.847656 Z M 228.21875 125.308594 L 228.09375 125.898438 C 227.9375 125.898438 227.78125 125.898438 227.65625 125.898438 C 227.628906 125.898438 227.597656 125.898438 227.566406 125.898438 L 227.78125 125.21875 C 227.84375 124.9375 227.9375 124.628906 228 124.347656 C 228.15625 124.347656 228.28125 124.347656 228.4375 124.378906 C 228.375 124.691406 228.3125 125 228.21875 125.308594 Z M 228.65625 123.480469 C 228.5 123.480469 228.34375 123.511719 228.21875 123.511719 C 228.34375 123.015625 228.4375 122.519531 228.53125 122.023438 C 228.625 121.648438 228.6875 121.246094 228.777344 120.875 C 228.933594 120.90625 229.089844 120.9375 229.214844 120.9375 C 229.277344 120.9375 229.339844 120.9375 229.402344 120.96875 C 229.277344 121.371094 229.121094 121.804688 228.996094 122.238281 C 228.871094 122.644531 228.777344 123.046875 228.65625 123.480469 Z M 230.398438 124.9375 C 230.304688 125.339844 230.210938 125.746094 230.117188 126.117188 L 229.527344 125.992188 C 229.339844 125.960938 229.121094 125.929688 228.933594 125.929688 L 229.058594 125.496094 C 229.152344 125.09375 229.277344 124.722656 229.371094 124.316406 C 229.433594 124.316406 229.496094 124.316406 229.558594 124.316406 C 229.898438 124.285156 230.210938 124.222656 230.554688 124.195312 C 230.554688 124.195312 230.585938 124.195312 230.585938 124.195312 C 230.523438 124.441406 230.460938 124.691406 230.398438 124.9375 Z M 230.992188 122.582031 C 230.898438 122.859375 230.835938 123.140625 230.773438 123.449219 C 230.648438 123.449219 230.554688 123.449219 230.492188 123.449219 C 230.210938 123.449219 229.898438 123.449219 229.621094 123.449219 C 229.714844 123.109375 229.808594 122.796875 229.898438 122.457031 C 230.023438 121.992188 230.148438 121.496094 230.273438 121.03125 C 230.398438 121.03125 230.554688 121.03125 230.679688 121.03125 C 230.960938 121.03125 231.238281 121 231.488281 120.96875 C 231.300781 121.496094 231.144531 122.023438 230.992188 122.582031 Z M 231.738281 123.945312 C 231.707031 123.914062 231.675781 123.882812 231.675781 123.851562 C 231.675781 123.914062 231.707031 123.945312 231.738281 123.945312 Z M 232.953125 120.160156 C 232.984375 120.160156 233.015625 120.097656 233.015625 120.097656 C 233.015625 120.128906 232.984375 120.160156 232.953125 120.160156 Z M 231.800781 123.976562 C 231.800781 124.007812 231.800781 124.007812 231.800781 123.976562 Z M 217.722656 120.90625 C 217.753906 120.566406 217.816406 120.253906 217.847656 119.914062 C 217.972656 119.011719 218.066406 118.082031 218.160156 117.183594 C 217.972656 117.027344 217.785156 116.964844 217.597656 116.996094 C 217.597656 117.027344 217.566406 117.058594 217.566406 117.089844 C 217.351562 118.363281 217.101562 119.632812 216.882812 120.90625 C 216.632812 120.90625 216.414062 120.90625 216.167969 120.875 C 216.042969 120.875 215.917969 120.875 215.792969 120.875 C 215.949219 119.914062 216.105469 118.984375 216.261719 118.019531 C 215.949219 118.425781 215.605469 118.890625 215.292969 119.449219 C 215.171875 119.945312 215.078125 120.410156 214.953125 120.90625 C 214.796875 120.90625 214.671875 120.90625 214.515625 120.90625 C 214.390625 121.183594 214.265625 121.433594 214.113281 121.710938 C 214.171875 121.710938 214.265625 121.710938 214.328125 121.742188 C 214.453125 121.742188 214.609375 121.773438 214.734375 121.773438 C 214.578125 122.425781 214.421875 123.109375 214.265625 123.757812 C 214.171875 124.195312 214.082031 124.660156 213.988281 125.09375 C 213.863281 125.09375 213.738281 125.0625 213.613281 125.0625 C 213.457031 125.0625 213.300781 125.03125 213.144531 125.03125 C 213.207031 124.535156 213.269531 124.039062 213.332031 123.542969 C 212.679688 125.1875 212.085938 126.800781 211.683594 128.039062 C 211.652344 128.132812 211.652344 128.257812 211.621094 128.351562 L 211.621094 128.382812 C 211.589844 128.382812 211.589844 128.382812 211.558594 128.382812 C 211.464844 128.628906 211.402344 128.847656 211.339844 129.0625 C 211.402344 129.0625 211.433594 129.09375 211.496094 129.09375 L 211.308594 130.398438 C 211.464844 130.519531 211.652344 130.644531 211.871094 130.800781 C 211.898438 130.707031 211.898438 130.644531 211.929688 130.613281 L 212.304688 129.21875 C 212.429688 129.21875 212.523438 129.25 212.648438 129.25 C 212.867188 129.28125 213.082031 129.28125 213.300781 129.28125 L 213.238281 129.589844 L 213.082031 130.488281 C 213.082031 130.582031 213.082031 130.675781 213.082031 130.800781 L 213.082031 130.863281 C 213.050781 130.894531 213.019531 130.925781 213.019531 130.957031 C 212.992188 131.078125 213.050781 131.234375 213.175781 131.265625 C 213.269531 131.296875 213.332031 131.296875 213.394531 131.265625 C 213.488281 131.234375 213.550781 131.171875 213.582031 131.046875 C 213.613281 130.957031 213.582031 130.707031 213.613281 130.613281 L 213.832031 129.746094 L 213.957031 129.28125 C 214.113281 129.28125 214.265625 129.25 214.390625 129.25 C 214.578125 129.25 214.921875 129.15625 215.265625 129.125 C 215.234375 129.21875 215.234375 129.3125 215.203125 129.40625 L 215.015625 130.398438 C 215.015625 130.429688 215.015625 130.644531 214.984375 130.769531 C 214.953125 130.769531 214.953125 130.800781 214.921875 130.832031 C 214.921875 130.832031 214.953125 130.800781 214.984375 130.800781 C 214.984375 130.863281 214.953125 130.894531 214.921875 130.894531 C 214.921875 130.894531 214.890625 130.894531 214.890625 130.894531 C 214.859375 130.957031 214.859375 130.988281 214.859375 131.046875 C 214.859375 131.046875 214.859375 131.078125 214.859375 131.078125 C 215.109375 130.957031 215.292969 130.832031 215.480469 130.675781 C 215.511719 130.613281 215.511719 130.550781 215.511719 130.519531 L 215.792969 129.527344 L 215.917969 129.09375 C 215.949219 129.0625 216.011719 129.0625 216.011719 129 C 216.074219 128.90625 216.074219 128.785156 216.011719 128.722656 L 216.632812 126.363281 C 216.664062 126.242188 216.695312 126.117188 216.726562 125.960938 C 216.851562 125.929688 217.007812 125.898438 217.132812 125.898438 C 217.289062 125.898438 217.382812 125.746094 217.351562 125.621094 C 217.351562 125.464844 217.195312 125.371094 217.070312 125.402344 C 217.007812 125.402344 216.945312 125.402344 216.882812 125.402344 C 216.976562 125 217.070312 124.597656 217.164062 124.222656 C 217.257812 123.726562 217.351562 123.261719 217.445312 122.765625 C 217.507812 122.425781 217.566406 122.085938 217.597656 121.710938 C 217.816406 121.679688 218.128906 121.648438 218.378906 121.589844 C 218.410156 121.402344 218.441406 121.183594 218.472656 121 C 218.316406 120.9375 218.003906 120.9375 217.722656 120.90625 Z M 213.738281 126.488281 L 213.425781 128.289062 C 213.394531 128.289062 213.363281 128.289062 213.332031 128.289062 C 213.050781 128.289062 212.773438 128.289062 212.492188 128.320312 C 212.617188 127.855469 212.710938 127.386719 212.804688 126.953125 C 212.898438 126.550781 212.960938 126.179688 213.019531 125.777344 C 213.175781 125.804688 213.363281 125.867188 213.550781 125.898438 C 213.644531 125.929688 213.738281 125.929688 213.832031 125.960938 C 213.800781 126.117188 213.769531 126.300781 213.738281 126.488281 Z M 215.855469 126.085938 C 215.730469 126.613281 215.636719 127.171875 215.511719 127.699219 C 215.449219 127.945312 215.417969 128.164062 215.386719 128.410156 C 215.046875 128.382812 214.609375 128.382812 214.421875 128.351562 C 214.328125 128.351562 214.234375 128.351562 214.171875 128.320312 L 214.578125 126.644531 C 214.640625 126.425781 214.671875 126.210938 214.734375 126.023438 C 215.046875 126.054688 215.355469 126.054688 215.667969 126.023438 C 215.761719 126.023438 215.824219 126.023438 215.917969 125.992188 C 215.855469 126.054688 215.855469 126.054688 215.855469 126.085938 Z M 216.324219 123.851562 C 216.230469 124.316406 216.136719 124.78125 216.042969 125.25 C 215.824219 125.21875 215.605469 125.21875 215.355469 125.1875 C 215.203125 125.1875 215.078125 125.15625 214.921875 125.15625 C 214.984375 124.90625 215.046875 124.660156 215.109375 124.410156 C 215.265625 123.636719 215.449219 122.859375 215.574219 122.117188 C 215.605469 122.023438 215.605469 121.898438 215.636719 121.804688 C 215.824219 121.804688 216.011719 121.804688 216.199219 121.804688 C 216.386719 121.804688 216.570312 121.773438 216.726562 121.773438 C 216.601562 122.425781 216.445312 123.140625 216.324219 123.851562 Z M 214.921875 130.800781 C 214.921875 130.800781 214.921875 130.769531 214.953125 130.769531 L 214.921875 130.800781 C 214.953125 130.769531 214.921875 130.769531 214.921875 130.800781 Z M 191.128906 141.097656 C 191.160156 141.097656 191.160156 141.128906 191.128906 141.097656 Z M 191.128906 141.097656 " fill-opacity="1" fill-rule="nonzero"/><path fill="#fdfaf4" d="M 166.929688 167.308594 C 166.898438 167.308594 166.808594 167.371094 166.777344 167.402344 C 166.746094 167.433594 166.714844 167.433594 166.683594 167.460938 C 166.589844 167.492188 166.527344 167.492188 166.496094 167.460938 C 166.371094 167.433594 166.277344 167.339844 166.339844 167.152344 C 166.339844 167.152344 166.339844 167.089844 166.402344 167.027344 C 166.402344 167.027344 166.433594 166.996094 166.433594 166.996094 C 166.496094 166.933594 166.683594 166.78125 166.777344 166.75 L 167.585938 166.5 L 170.078125 165.789062 C 170.699219 165.601562 171.292969 165.414062 171.882812 165.199219 C 172.476562 165.011719 173.066406 164.796875 173.65625 164.578125 C 174.839844 164.144531 175.992188 163.648438 177.144531 163.089844 C 177.300781 162.996094 177.457031 163.058594 177.550781 163.214844 C 177.644531 163.367188 177.582031 163.523438 177.425781 163.617188 C 176.304688 164.300781 175.152344 164.917969 174 165.414062 C 173.410156 165.664062 172.816406 165.910156 172.195312 166.097656 C 171.570312 166.285156 170.949219 166.46875 170.324219 166.625 C 169.984375 166.6875 169.640625 166.78125 169.296875 166.84375 C 168.800781 166.933594 168.269531 167.027344 167.773438 167.152344 Z M 196.890625 170.097656 C 197.046875 170.191406 197.203125 170.128906 197.292969 169.976562 C 197.542969 169.539062 197.761719 169.074219 197.949219 168.609375 C 198.355469 167.554688 198.632812 166.46875 199.101562 165.445312 C 199.382812 164.765625 199.785156 164.144531 200.160156 163.492188 C 200.75 162.53125 201.40625 161.570312 202.027344 160.609375 L 203.429688 158.40625 C 203.460938 158.34375 203.585938 157.941406 203.710938 157.816406 C 203.742188 157.816406 203.835938 157.816406 203.804688 157.785156 C 203.773438 157.785156 203.742188 157.816406 203.710938 157.816406 C 203.742188 157.785156 203.773438 157.753906 203.804688 157.785156 C 203.898438 157.753906 203.960938 157.660156 203.960938 157.566406 C 203.960938 157.414062 203.867188 157.289062 203.710938 157.289062 C 203.617188 157.289062 203.492188 157.320312 203.335938 157.476562 C 203.179688 157.660156 202.960938 158.003906 202.898438 158.066406 L 201.3125 160.171875 C 200.96875 160.640625 200.628906 161.105469 200.285156 161.570312 C 199.941406 162.035156 199.597656 162.5 199.289062 162.996094 C 198.851562 163.679688 198.476562 164.359375 198.199219 165.105469 C 197.792969 166.191406 197.542969 167.308594 197.203125 168.394531 C 197.046875 168.828125 196.890625 169.292969 196.671875 169.695312 C 196.703125 169.851562 196.734375 170.039062 196.890625 170.097656 Z M 228.808594 134.769531 C 228.6875 134.707031 228.53125 134.769531 228.46875 134.894531 C 227.96875 135.949219 226.691406 140.664062 225.355469 145.472656 C 224.667969 147.953125 223.984375 150.464844 223.359375 152.511719 C 222.738281 154.621094 222.238281 156.234375 221.929688 156.699219 C 221.429688 157.476562 220.621094 158.375 219.71875 159.273438 C 217.722656 161.257812 215.171875 163.367188 213.738281 164.796875 C 212.304688 166.222656 211.089844 167.585938 209.96875 169.042969 C 208.847656 170.503906 207.851562 172.023438 206.855469 173.757812 C 206.761719 173.914062 206.824219 174.070312 206.949219 174.164062 C 207.105469 174.253906 207.261719 174.195312 207.355469 174.070312 C 208.351562 172.394531 209.378906 170.90625 210.53125 169.480469 C 211.652344 168.082031 212.867188 166.75 214.296875 165.382812 C 215.761719 163.988281 218.347656 161.910156 220.371094 159.925781 C 221.335938 158.964844 222.175781 158.035156 222.707031 157.195312 C 223.019531 156.699219 223.578125 154.992188 224.234375 152.730469 C 224.824219 150.683594 225.476562 148.140625 226.101562 145.625 C 227.316406 140.820312 228.46875 136.105469 228.933594 135.050781 C 228.996094 134.988281 228.933594 134.832031 228.808594 134.769531 Z M 224.980469 167.460938 C 224.855469 167.433594 224.699219 167.492188 224.667969 167.617188 C 224.511719 168.019531 223.828125 168.859375 222.863281 169.976562 C 222.363281 170.535156 221.835938 171.152344 221.242188 171.804688 C 220.714844 172.394531 220.152344 173.015625 219.625 173.605469 C 218.96875 174.347656 218.316406 175.125 217.691406 175.804688 C 216.292969 177.386719 215.171875 178.691406 214.796875 179.09375 C 214.671875 179.21875 214.671875 179.40625 214.796875 179.496094 C 214.921875 179.589844 215.109375 179.621094 215.203125 179.496094 C 215.667969 179.0625 217.289062 177.449219 219.0625 175.558594 C 219.46875 175.125 219.902344 174.660156 220.308594 174.195312 C 220.714844 173.726562 221.117188 173.261719 221.523438 172.796875 C 222.082031 172.144531 222.613281 171.496094 223.082031 170.875 C 224.203125 169.417969 225.011719 168.238281 225.167969 167.742188 C 225.199219 167.648438 225.105469 167.492188 224.980469 167.460938 Z M 188.761719 171.527344 C 189.105469 171.339844 189.445312 171.09375 189.757812 170.84375 C 189.976562 170.6875 190.164062 170.503906 190.351562 170.316406 C 190.476562 170.222656 190.566406 170.097656 190.691406 169.976562 C 190.847656 169.789062 191.003906 169.632812 191.128906 169.449219 C 191.285156 169.261719 191.410156 169.105469 191.566406 168.921875 C 191.78125 168.640625 192 168.394531 192.21875 168.144531 C 192.34375 168.050781 192.34375 167.898438 192.25 167.773438 C 192.15625 167.679688 192 167.648438 191.875 167.742188 C 191.535156 167.960938 191.222656 168.207031 190.910156 168.457031 C 190.722656 168.609375 190.503906 168.796875 190.320312 168.984375 C 190.195312 169.105469 190.039062 169.261719 189.914062 169.386719 C 189.789062 169.539062 189.664062 169.664062 189.539062 169.820312 C 189.167969 170.253906 188.824219 170.65625 188.386719 171.03125 C 188.261719 171.121094 188.234375 171.308594 188.324219 171.433594 C 188.417969 171.589844 188.605469 171.617188 188.761719 171.527344 Z M 201.4375 176.179688 C 201.53125 176.054688 201.53125 175.929688 201.5 175.835938 C 201.46875 175.777344 201.40625 175.714844 201.3125 175.683594 C 201.1875 175.621094 201.03125 175.683594 200.96875 175.804688 C 200.96875 175.835938 200.9375 175.867188 200.9375 175.929688 C 200.90625 175.960938 200.84375 175.992188 200.8125 176.023438 C 200.6875 176.117188 200.597656 176.179688 200.503906 176.273438 L 199.597656 177.234375 C 199.195312 177.636719 198.789062 177.976562 198.382812 178.320312 C 198.167969 178.472656 197.949219 178.660156 197.730469 178.816406 C 197.511719 178.96875 197.292969 179.125 197.078125 179.28125 C 196.609375 179.589844 196.140625 179.871094 195.675781 180.148438 C 195.207031 180.429688 194.710938 180.707031 194.210938 180.957031 C 194.054688 181.015625 193.992188 181.203125 194.054688 181.359375 C 194.117188 181.511719 194.304688 181.574219 194.460938 181.511719 C 195.238281 181.203125 196.019531 180.894531 196.734375 180.519531 C 197.234375 180.273438 197.730469 179.992188 198.167969 179.652344 C 198.476562 179.433594 198.757812 179.21875 199.039062 178.9375 C 199.445312 178.566406 199.816406 178.164062 200.191406 177.730469 C 200.347656 177.542969 200.472656 177.355469 200.597656 177.171875 C 200.71875 176.984375 200.84375 176.800781 201 176.613281 C 201.09375 176.488281 201.375 176.300781 201.4375 176.179688 Z M 205.578125 185.578125 C 205.328125 185.640625 205.082031 185.792969 204.863281 186.011719 C 204.457031 186.382812 204.082031 186.941406 203.804688 187.28125 C 203.617188 187.5 203.429688 187.71875 203.242188 187.902344 C 203.054688 188.121094 202.839844 188.304688 202.652344 188.523438 C 202.246094 188.925781 201.777344 189.300781 201.3125 189.640625 C 201.15625 189.734375 201.125 189.886719 201.21875 190.042969 C 201.3125 190.199219 201.5 190.230469 201.625 190.136719 C 202.183594 189.855469 202.714844 189.546875 203.210938 189.175781 C 203.460938 188.988281 203.710938 188.773438 203.929688 188.554688 C 204.144531 188.335938 204.332031 188.089844 204.519531 187.808594 C 204.644531 187.625 204.800781 187.375 204.957031 187.097656 C 205.082031 186.878906 205.203125 186.664062 205.359375 186.445312 C 205.484375 186.289062 205.609375 186.136719 205.765625 186.074219 C 205.890625 186.042969 205.984375 185.886719 205.921875 185.761719 C 205.859375 185.609375 205.703125 185.546875 205.578125 185.578125 Z M 171.726562 195.007812 C 170.203125 197.117188 168.707031 199.222656 167.335938 201.394531 C 167.242188 201.550781 167.054688 201.582031 166.929688 201.488281 C 166.808594 201.394531 166.746094 201.242188 166.839844 201.085938 C 168.144531 198.851562 169.578125 196.648438 171.074219 194.511719 C 172.195312 192.898438 173.347656 191.316406 174.53125 189.765625 C 175.714844 188.214844 176.929688 186.695312 178.140625 185.171875 C 178.828125 184.335938 179.480469 183.5 180.199219 182.691406 C 180.882812 181.886719 181.597656 181.078125 182.316406 180.273438 C 182.597656 179.960938 182.875 179.683594 183.15625 179.375 C 183.4375 179.09375 183.71875 178.785156 183.996094 178.503906 C 184.121094 178.382812 184.496094 178.132812 184.683594 177.976562 C 184.652344 177.855469 184.714844 177.730469 184.839844 177.667969 C 185.148438 177.542969 185.242188 177.761719 185.242188 177.855469 C 185.242188 177.882812 185.242188 177.976562 185.179688 178.070312 C 185.085938 178.226562 184.558594 178.660156 184.371094 178.878906 L 182.78125 180.675781 C 182.097656 181.484375 181.414062 182.320312 180.757812 183.15625 C 180.105469 183.996094 179.449219 184.832031 178.796875 185.699219 C 177.613281 187.25 176.460938 188.800781 175.246094 190.355469 C 174.0625 191.90625 172.878906 193.457031 171.726562 195.007812 Z M 184.714844 177.945312 C 184.746094 177.882812 184.777344 177.855469 184.746094 177.824219 C 184.683594 177.792969 184.714844 177.882812 184.714844 177.945312 Z M 182.8125 192.617188 C 183.777344 191.5 184.746094 190.382812 185.710938 189.269531 C 186.363281 188.523438 187.019531 187.777344 187.671875 187.066406 C 188.046875 186.664062 188.449219 186.042969 188.886719 185.546875 C 189.074219 185.359375 189.261719 185.171875 189.445312 185.050781 C 189.570312 184.988281 189.601562 184.832031 189.539062 184.707031 C 189.476562 184.585938 189.324219 184.554688 189.199219 184.617188 C 188.949219 184.738281 188.730469 184.957031 188.480469 185.171875 C 188.015625 185.640625 187.578125 186.257812 187.203125 186.664062 C 186.332031 187.5625 185.492188 188.460938 184.652344 189.359375 C 183.808594 190.261719 182.96875 191.191406 182.160156 192.089844 C 180.632812 193.796875 179.109375 195.535156 177.613281 197.300781 C 176.617188 198.480469 175.652344 199.691406 174.71875 200.898438 C 172.382812 203.9375 170.171875 207.101562 168.238281 210.453125 C 168.144531 210.609375 168.207031 210.761719 168.332031 210.855469 C 168.488281 210.949219 168.644531 210.886719 168.738281 210.761719 C 170.324219 208.15625 172.101562 205.675781 173.96875 203.257812 C 175.371094 201.425781 176.835938 199.660156 178.296875 197.890625 C 179.824219 196.089844 181.320312 194.355469 182.8125 192.617188 Z M 200.347656 193.019531 C 200.347656 193.082031 200.347656 193.175781 200.222656 193.269531 C 200.097656 193.363281 199.414062 193.578125 199.164062 193.765625 L 197.417969 195.007812 C 196.484375 195.6875 195.550781 196.402344 194.648438 197.144531 C 193.746094 197.859375 192.808594 198.605469 191.9375 199.347656 C 190.503906 200.527344 189.136719 201.738281 187.734375 202.945312 C 186.363281 204.15625 184.992188 205.398438 183.65625 206.667969 C 180.976562 209.179688 178.421875 211.816406 176.054688 214.640625 C 175.960938 214.765625 175.777344 214.796875 175.652344 214.671875 C 175.527344 214.578125 175.496094 214.390625 175.621094 214.269531 C 177.925781 211.382812 180.414062 208.621094 183.0625 206.046875 C 184.402344 204.746094 185.742188 203.503906 187.140625 202.265625 C 188.542969 201.054688 189.976562 199.875 191.410156 198.726562 C 192.34375 197.984375 193.277344 197.269531 194.210938 196.589844 C 195.144531 195.875 196.113281 195.191406 197.078125 194.539062 L 198.882812 193.363281 C 199.039062 193.269531 199.414062 193.144531 199.660156 193.050781 C 199.691406 193.050781 199.722656 193.019531 199.753906 193.019531 C 199.785156 192.898438 199.910156 192.835938 200.035156 192.835938 C 200.285156 192.773438 200.347656 192.960938 200.347656 193.019531 Z M 199.910156 192.867188 C 199.878906 192.835938 199.847656 192.867188 199.847656 192.898438 C 199.878906 192.898438 199.910156 192.898438 199.910156 192.867188 Z M 151.890625 208.808594 C 151.859375 208.09375 151.796875 207.382812 151.796875 206.667969 C 151.765625 205.957031 151.734375 205.242188 151.734375 204.527344 C 151.734375 203.628906 151.765625 202.730469 151.859375 201.859375 C 151.890625 201.707031 151.765625 201.582031 151.640625 201.582031 C 151.515625 201.550781 151.359375 201.675781 151.359375 201.800781 C 151.171875 202.882812 151.050781 203.96875 150.988281 205.054688 C 150.957031 205.769531 150.925781 206.511719 150.957031 207.257812 C 150.957031 207.816406 150.988281 208.34375 151.019531 208.902344 C 151.050781 209.460938 151.082031 209.988281 151.140625 210.546875 C 151.265625 212.191406 151.453125 213.800781 151.515625 215.382812 C 151.515625 215.539062 151.640625 215.664062 151.828125 215.664062 C 151.984375 215.664062 152.109375 215.539062 152.109375 215.355469 C 152.140625 214.050781 152.109375 212.75 152.078125 211.445312 C 151.953125 210.546875 151.921875 209.675781 151.890625 208.808594 Z M 209.503906 186.941406 C 209.378906 186.878906 209.222656 186.941406 209.160156 187.066406 C 208.910156 187.46875 208.753906 187.933594 208.660156 188.429688 C 208.597656 188.742188 208.566406 189.050781 208.535156 189.359375 C 208.535156 189.578125 208.507812 189.828125 208.535156 190.042969 C 208.535156 190.261719 208.566406 190.507812 208.597656 190.726562 C 208.628906 191.066406 208.691406 191.40625 208.722656 191.71875 C 208.753906 192.058594 208.785156 192.371094 208.816406 192.679688 C 208.816406 192.835938 208.941406 192.988281 209.097656 192.988281 C 209.253906 192.988281 209.410156 192.867188 209.410156 192.710938 C 209.472656 192.214844 209.503906 191.625 209.503906 191.066406 C 209.503906 190.726562 209.503906 190.355469 209.503906 190.011719 C 209.503906 189.734375 209.472656 189.421875 209.472656 189.144531 C 209.472656 188.863281 209.472656 188.585938 209.472656 188.304688 C 209.503906 187.933594 209.535156 187.59375 209.65625 187.28125 C 209.65625 187.160156 209.628906 187.003906 209.503906 186.941406 Z M 209.503906 186.941406 " fill-opacity="1" fill-rule="evenodd"/><g clip-path="url(#a9ede2d2bd)"><path fill="#50d6d3" d="M 173.191406 262.035156 C 169.578125 261.632812 162.011719 262.5 155.191406 258.5 C 145.535156 252.855469 143.449219 250.867188 141.644531 247.363281 C 140.898438 245.90625 144.976562 237.160156 144.976562 237.160156 C 147.902344 237.25 154.195312 246.0625 159.175781 248.015625 C 164.003906 249.90625 174.71875 248.914062 174.71875 248.914062 C 176.210938 250.09375 174.902344 262.25 173.191406 262.035156 Z M 173.191406 262.035156 " fill-opacity="1" fill-rule="evenodd"/></g><path fill="#d700df" d="M 172.910156 252.976562 C 172.910156 257.910156 169.140625 261.878906 164.472656 261.878906 C 159.800781 261.878906 156.03125 257.878906 156.03125 252.976562 C 156.03125 248.046875 159.800781 244.074219 164.472656 244.074219 C 169.140625 244.074219 172.910156 248.046875 172.910156 252.976562 Z M 172.910156 252.976562 " fill-opacity="1" fill-rule="evenodd"/><path fill="#fdfaf4" d="M 171.011719 253.226562 C 171.011719 257.070312 168.113281 260.203125 164.535156 260.203125 C 160.953125 260.203125 158.054688 257.070312 158.054688 253.226562 C 158.054688 249.378906 160.953125 246.246094 164.535156 246.246094 C 168.113281 246.246094 171.011719 249.347656 171.011719 253.226562 Z M 171.011719 253.226562 " fill-opacity="1" fill-rule="evenodd"/><path fill="#fe7624" d="M 172.164062 261.257812 C 172.132812 261.414062 171.976562 261.507812 171.820312 261.476562 C 171.726562 261.507812 171.695312 261.539062 171.601562 261.570312 C 171.539062 261.570312 171.507812 261.601562 171.445312 261.570312 C 171.382812 261.570312 171.355469 261.539062 171.292969 261.476562 C 171.199219 261.382812 171.167969 261.351562 171.105469 261.226562 C 170.980469 261.167969 170.917969 261.011719 170.980469 260.886719 C 171.042969 260.761719 171.199219 260.699219 171.324219 260.761719 C 171.382812 260.761719 171.382812 260.699219 171.445312 260.699219 C 171.476562 260.699219 171.476562 260.671875 171.507812 260.671875 C 171.539062 260.671875 171.570312 260.640625 171.601562 260.640625 C 171.632812 260.640625 171.664062 260.671875 171.726562 260.699219 C 171.820312 260.761719 171.851562 260.792969 171.914062 260.855469 C 172.101562 260.949219 172.195312 261.105469 172.164062 261.257812 Z M 165.5 247.890625 C 165.5 248.230469 165.5 248.542969 165.5 248.882812 C 165.5 249.222656 165.5 249.535156 165.46875 249.875 C 165.46875 250.0625 165.4375 250.21875 165.4375 250.402344 C 165.40625 250.683594 165.34375 250.929688 165.3125 251.210938 L 165.0625 252.296875 C 165.0625 252.355469 164.9375 252.667969 164.90625 252.761719 C 164.71875 253.257812 164.347656 253.007812 164.378906 252.730469 C 164.378906 252.699219 164.378906 252.667969 164.410156 252.636719 L 164.410156 252.605469 C 164.410156 252.480469 164.441406 252.234375 164.441406 252.203125 L 164.472656 251.085938 C 164.503906 250.835938 164.503906 250.558594 164.535156 250.308594 C 164.566406 250.125 164.566406 249.96875 164.597656 249.78125 C 164.625 249.535156 164.6875 249.253906 164.71875 249.007812 C 164.78125 248.605469 164.875 248.230469 164.9375 247.828125 C 164.96875 247.671875 165.09375 247.550781 165.25 247.582031 C 165.40625 247.613281 165.53125 247.734375 165.5 247.890625 Z M 164.535156 252.480469 C 164.503906 252.480469 164.441406 252.511719 164.410156 252.542969 C 164.472656 252.511719 164.503906 252.480469 164.535156 252.480469 Z M 164.378906 252.636719 C 164.378906 252.636719 164.347656 252.636719 164.378906 252.636719 Z M 165.902344 253.320312 C 165.871094 253.382812 165.933594 253.351562 165.964844 253.351562 Z M 168.894531 253.226562 C 168.863281 253.382812 168.738281 253.503906 168.582031 253.503906 C 168.332031 253.503906 168.082031 253.566406 167.835938 253.597656 C 167.679688 253.628906 167.492188 253.628906 167.335938 253.628906 C 167.148438 253.628906 166.960938 253.597656 166.777344 253.566406 L 166.152344 253.410156 C 166.121094 253.410156 166.027344 253.351562 165.964844 253.351562 C 165.996094 253.320312 166.027344 253.320312 166.058594 253.289062 C 165.996094 253.320312 165.933594 253.351562 165.839844 253.320312 C 165.777344 253.320312 165.746094 253.257812 165.71875 253.257812 C 165.6875 253.226562 165.6875 253.164062 165.65625 253.164062 C 165.625 253.070312 165.65625 253.007812 165.746094 252.914062 C 165.746094 252.914062 165.808594 252.882812 165.933594 252.855469 C 165.933594 252.855469 165.964844 252.855469 165.964844 252.855469 C 166.027344 252.855469 166.183594 252.855469 166.214844 252.855469 L 166.777344 252.792969 C 166.929688 252.792969 167.054688 252.761719 167.210938 252.761719 C 167.367188 252.761719 167.523438 252.761719 167.648438 252.792969 C 167.960938 252.824219 168.269531 252.882812 168.582031 252.976562 C 168.800781 252.914062 168.894531 253.070312 168.894531 253.226562 Z M 166.089844 252.882812 Z M 166.121094 253.195312 C 166.089844 253.226562 166.089844 253.257812 166.058594 253.257812 C 166.089844 253.257812 166.121094 253.226562 166.121094 253.195312 Z M 166.152344 253.039062 C 166.152344 253.070312 166.152344 253.101562 166.152344 253.132812 C 166.183594 253.101562 166.183594 253.070312 166.152344 253.039062 Z M 147.28125 241.222656 C 147.40625 241.347656 147.40625 241.53125 147.28125 241.625 C 147.15625 241.75 146.96875 241.75 146.875 241.625 C 146.75 241.5625 146.625 241.5 146.535156 241.40625 C 146.410156 241.347656 146.316406 241.253906 146.191406 241.191406 C 146.128906 241.128906 146.035156 241.097656 145.972656 241.035156 C 145.910156 240.972656 145.847656 240.910156 145.785156 240.851562 C 145.660156 240.695312 145.351562 240.355469 145.289062 240.230469 C 145.257812 240.167969 145.226562 240.136719 145.226562 240.136719 C 145.195312 239.980469 145.226562 239.855469 145.320312 239.828125 C 145.351562 239.828125 145.351562 239.796875 145.414062 239.796875 C 145.445312 239.796875 145.535156 239.734375 145.628906 239.828125 C 145.660156 239.828125 145.691406 239.855469 145.722656 239.886719 C 145.722656 239.886719 145.722656 239.917969 145.753906 239.917969 C 145.753906 239.886719 145.753906 239.886719 145.753906 239.886719 C 145.753906 239.886719 145.785156 239.917969 145.785156 239.949219 C 145.847656 239.980469 145.941406 239.980469 146.035156 240.042969 C 146.191406 240.105469 146.316406 240.199219 146.378906 240.230469 C 146.441406 240.292969 146.535156 240.324219 146.597656 240.382812 C 146.65625 240.445312 146.71875 240.507812 146.78125 240.570312 C 146.96875 240.757812 147.125 240.972656 147.28125 241.222656 Z M 145.503906 240.292969 Z M 145.722656 239.855469 Z M 150.894531 244.355469 C 151.019531 244.449219 151.050781 244.632812 150.925781 244.757812 C 150.832031 244.882812 150.644531 244.914062 150.519531 244.789062 C 150.457031 244.757812 150.175781 244.664062 149.898438 244.480469 C 149.835938 244.449219 149.773438 244.386719 149.710938 244.355469 C 149.648438 244.292969 149.585938 244.261719 149.523438 244.199219 C 149.460938 244.136719 149.398438 244.042969 149.335938 243.984375 C 149.210938 243.828125 149.117188 243.671875 149.054688 243.578125 C 149.023438 243.515625 148.992188 243.488281 148.992188 243.457031 C 148.992188 243.363281 148.960938 243.300781 148.992188 243.238281 C 149.054688 243.113281 149.179688 243.050781 149.335938 243.082031 C 149.429688 243.113281 149.492188 243.175781 149.492188 243.269531 C 149.492188 243.238281 149.492188 243.238281 149.492188 243.207031 C 149.492188 243.207031 149.492188 243.175781 149.492188 243.175781 C 149.554688 243.207031 149.648438 243.238281 149.773438 243.300781 C 149.867188 243.363281 149.960938 243.394531 150.082031 243.457031 C 150.144531 243.484375 150.207031 243.546875 150.269531 243.578125 C 150.332031 243.640625 150.394531 243.671875 150.425781 243.734375 C 150.675781 244.042969 150.832031 244.292969 150.894531 244.355469 Z M 149.492188 243.300781 C 149.492188 243.332031 149.492188 243.363281 149.492188 243.394531 C 149.492188 243.363281 149.492188 243.332031 149.492188 243.300781 Z M 153.324219 246.960938 C 153.292969 246.835938 153.261719 246.742188 153.324219 246.710938 C 153.382812 246.589844 153.539062 246.527344 153.664062 246.589844 C 153.695312 246.617188 153.726562 246.648438 153.757812 246.679688 C 153.820312 246.710938 153.945312 246.742188 154.101562 246.773438 C 154.195312 246.804688 154.320312 246.835938 154.445312 246.898438 C 154.503906 246.929688 154.597656 246.960938 154.660156 246.992188 C 154.722656 247.023438 154.816406 247.085938 154.878906 247.117188 C 155.191406 247.332031 155.410156 247.550781 155.472656 247.582031 C 155.625 247.644531 155.65625 247.828125 155.597656 247.984375 C 155.535156 248.140625 155.347656 248.171875 155.191406 248.109375 C 155.128906 248.078125 154.816406 248.015625 154.476562 247.890625 C 154.414062 247.859375 154.320312 247.828125 154.257812 247.796875 C 154.195312 247.765625 154.101562 247.703125 154.039062 247.671875 C 153.945312 247.613281 153.882812 247.550781 153.789062 247.488281 C 153.632812 247.332031 153.507812 247.207031 153.445312 247.117188 C 153.382812 247.054688 153.351562 247.023438 153.324219 246.960938 Z M 153.789062 246.773438 C 153.789062 246.804688 153.789062 246.835938 153.789062 246.867188 C 153.820312 246.835938 153.820312 246.804688 153.789062 246.773438 Z M 153.789062 246.710938 C 153.789062 246.710938 153.789062 246.742188 153.789062 246.742188 Z M 144.632812 248.230469 C 144.570312 248.109375 144.476562 247.984375 144.382812 247.828125 C 144.324219 247.734375 144.261719 247.644531 144.199219 247.582031 C 144.136719 247.488281 144.042969 247.425781 143.980469 247.332031 C 143.855469 247.238281 143.761719 247.117188 143.636719 247.054688 C 143.324219 246.835938 143.078125 246.710938 142.890625 246.710938 C 142.765625 246.679688 142.609375 246.804688 142.609375 246.929688 C 142.578125 247.054688 142.703125 247.207031 142.828125 247.207031 C 142.859375 247.207031 142.828125 247.238281 142.859375 247.269531 C 142.921875 247.332031 142.953125 247.425781 143.046875 247.519531 C 143.109375 247.613281 143.171875 247.703125 143.230469 247.828125 C 143.292969 247.921875 143.355469 248.046875 143.449219 248.140625 C 143.542969 248.261719 143.667969 248.386719 143.792969 248.511719 C 144.042969 248.757812 144.292969 248.976562 144.382812 249.070312 C 144.507812 249.195312 144.695312 249.195312 144.789062 249.070312 C 144.914062 248.945312 144.914062 248.757812 144.789062 248.667969 C 144.789062 248.542969 144.726562 248.386719 144.632812 248.230469 Z M 150.644531 253.132812 C 150.488281 253.007812 150.363281 252.882812 150.207031 252.761719 C 150.050781 252.636719 149.929688 252.542969 149.773438 252.417969 C 149.710938 252.355469 149.617188 252.296875 149.523438 252.265625 C 149.398438 252.203125 149.273438 252.109375 149.148438 252.046875 C 149.023438 251.984375 148.746094 251.859375 148.558594 251.769531 C 148.527344 251.738281 148.464844 251.738281 148.433594 251.707031 C 148.402344 251.644531 148.339844 251.582031 148.246094 251.582031 C 148.152344 251.550781 148.089844 251.582031 148.058594 251.582031 C 147.933594 251.582031 147.902344 251.707031 147.871094 251.800781 C 147.839844 251.859375 147.871094 251.921875 147.933594 252.046875 C 147.996094 252.171875 148.464844 252.574219 148.652344 252.761719 C 148.777344 252.855469 148.867188 252.945312 149.023438 253.039062 C 149.117188 253.101562 149.210938 253.132812 149.273438 253.195312 C 149.429688 253.289062 149.617188 253.351562 149.773438 253.441406 C 149.960938 253.535156 150.113281 253.597656 150.300781 253.660156 C 150.425781 253.753906 150.613281 253.691406 150.707031 253.566406 C 150.832031 253.410156 150.769531 253.226562 150.644531 253.132812 Z M 155.625 256.574219 C 155.410156 256.390625 155.191406 256.171875 154.972656 255.988281 C 154.816406 255.863281 154.660156 255.738281 154.503906 255.613281 C 154.351562 255.488281 154.164062 255.398438 154.007812 255.335938 C 153.726562 255.210938 153.476562 255.085938 153.199219 254.960938 C 153.074219 254.871094 152.917969 254.933594 152.855469 255.023438 C 152.792969 255.148438 152.824219 255.304688 152.917969 255.367188 C 153.136719 255.582031 153.324219 255.769531 153.539062 255.988281 C 153.695312 256.109375 153.820312 256.234375 153.976562 256.359375 C 154.132812 256.484375 154.320312 256.574219 154.476562 256.667969 C 154.753906 256.824219 155.003906 256.917969 155.285156 257.070312 C 155.410156 257.164062 155.597656 257.132812 155.6875 256.980469 C 155.8125 256.824219 155.75 256.667969 155.625 256.574219 Z M 146.066406 249.875 C 146.035156 249.84375 146.035156 249.8125 146.003906 249.78125 C 145.972656 249.75 145.910156 249.75 145.878906 249.75 C 145.847656 249.75 145.816406 249.75 145.785156 249.75 C 145.753906 249.75 145.753906 249.78125 145.753906 249.78125 C 145.753906 249.78125 145.722656 249.78125 145.753906 249.8125 C 145.785156 249.8125 145.753906 249.84375 145.753906 249.875 C 145.753906 249.75 145.628906 249.628906 145.503906 249.660156 C 145.351562 249.660156 145.257812 249.78125 145.257812 249.90625 C 145.226562 249.9375 145.257812 249.96875 145.257812 250 C 145.257812 250.03125 145.257812 250.03125 145.257812 250.0625 C 145.257812 250.15625 145.320312 250.21875 145.382812 250.371094 C 145.414062 250.433594 145.445312 250.496094 145.503906 250.527344 C 145.535156 250.558594 145.535156 250.558594 145.566406 250.558594 C 145.628906 250.589844 145.660156 250.589844 145.722656 250.589844 C 145.816406 250.621094 145.878906 250.589844 145.941406 250.589844 C 146.066406 250.683594 146.253906 250.683594 146.347656 250.558594 C 146.441406 250.433594 146.441406 250.25 146.316406 250.15625 C 146.191406 250.125 146.160156 250.03125 146.066406 249.875 Z M 146.066406 249.875 " fill-opacity="1" fill-rule="evenodd"/><path fill="#fcf9a9" d="M 205.082031 155.398438 C 205.203125 155.863281 203.367188 159.089844 202.714844 159.460938 C 202.589844 159.523438 200.90625 157.132812 197.667969 155.957031 C 194.617188 154.839844 190.007812 154.933594 189.945312 154.777344 C 189.882812 154.621094 192.59375 150.929688 193.746094 150.960938 C 194.898438 150.992188 198.042969 150.683594 201.25 151.921875 C 203.148438 152.636719 204.988281 155.148438 205.082031 155.398438 Z M 218.90625 174.101562 C 218.097656 171.804688 217.753906 168.578125 214.050781 165.757812 C 213.582031 165.382812 211.558594 168.488281 211.152344 168.671875 C 211.214844 168.734375 211.277344 168.828125 211.339844 168.890625 C 211.558594 169.136719 211.746094 169.417969 211.960938 169.664062 C 212.460938 170.316406 212.898438 171 213.300781 171.710938 C 214.203125 173.261719 214.890625 174.9375 215.292969 176.707031 C 215.292969 176.738281 215.605469 178.351562 215.917969 178.351562 C 216.136719 178.351562 216.539062 177.824219 216.664062 177.699219 C 217.910156 176.519531 219.46875 175.714844 218.90625 174.101562 Z M 211.089844 168.578125 C 211.089844 168.640625 211.121094 168.671875 211.183594 168.640625 C 211.089844 168.578125 211.027344 168.546875 211.089844 168.578125 Z M 211.089844 168.578125 " fill-opacity="1" fill-rule="nonzero"/></svg>