<svg xmlns="http://www.w3.org/2000/svg" xmlns:xlink="http://www.w3.org/1999/xlink" width="100" zoomAndPan="magnify" viewBox="100 138 150 100" height="100" preserveAspectRatio="xMidYMid meet" version="1.0"><defs><clipPath id="9a83537885"><path d="M 152 112.5 L 245 112.5 L 245 192 L 152 192 Z M 152 112.5 " clip-rule="nonzero"/></clipPath><clipPath id="ff6e10ad95"><path d="M 130.3125 225 L 184 225 L 184 261 L 130.3125 261 Z M 130.3125 225 " clip-rule="nonzero"/></clipPath></defs><path fill="#b64cff" d="M 242.730469 181.625 C 242.730469 181.625 228.871094 208.441406 224.941406 212.882812 C 222.453125 215.703125 218.734375 217.53125 215.484375 219.410156 C 205.738281 225 199.136719 232.9375 188 236.148438 C 183.863281 237.351562 181.636719 242.597656 177.546875 243.070312 C 171.96875 243.722656 165.679688 239.777344 161.175781 237.0625 L 148.230469 231.96875 C 148.152344 231.96875 149.070312 230.875 149.175781 230.71875 C 150.039062 229.542969 150.746094 228.234375 151.453125 226.957031 C 153.234375 223.769531 154.964844 220.402344 156.09375 216.929688 C 158.292969 210.246094 156.195312 194.757812 156.667969 186.898438 C 157.167969 178.804688 158.738281 169.875 158.582031 161.832031 C 158.449219 155.121094 152.292969 129.710938 155.203125 129.085938 C 158.03125 128.484375 161.882812 133.679688 164.238281 141.046875 C 165.628906 145.378906 169.558594 163.761719 169.664062 163.761719 C 170.605469 163.839844 172.152344 154.023438 172.308594 153.316406 C 173.855469 145.457031 173.070312 137.753906 172.386719 129.738281 C 172.046875 125.585938 169.769531 116.445312 171.261719 116.445312 C 174.613281 116.445312 176.421875 117.125 178.046875 120.886719 C 181.660156 129.269531 184.125 158.933594 184.597656 162.925781 C 184.988281 166.242188 188.160156 150.183594 188.472656 137.335938 C 188.734375 127.074219 188.394531 115.585938 189.023438 115.558594 C 191.433594 115.453125 195.652344 120.730469 195.941406 122.21875 C 198.664062 136.265625 198.691406 144.335938 198.089844 154.648438 C 197.695312 161.308594 196.488281 166.792969 197.382812 166.765625 C 201.496094 166.582031 203.90625 132.191406 204.402344 126.160156 C 204.480469 125.324219 203.277344 115.765625 205.242188 116.601562 C 207.308594 117.515625 211.949219 123.132812 212.550781 134.332031 C 213.492188 152.457031 209.746094 180.421875 211.503906 191.339844 C 214.382812 209.226562 228.664062 188.492188 233.484375 183.320312 C 239.011719 177.472656 242.730469 181.625 242.730469 181.625 Z M 242.730469 181.625 " fill-opacity="1" fill-rule="evenodd"/><g clip-path="url(#9a83537885)"><path fill="#fdc9e5" d="M 237.753906 190.945312 C 237.414062 191.339844 232.933594 192.148438 233.484375 188.988281 C 234.113281 185.464844 239.875 177.863281 241.839844 177.027344 C 242.074219 176.925781 244.617188 175.695312 244.878906 175.878906 C 245.0625 176.035156 244.851562 176.792969 244.828125 176.976562 C 244.617188 178.203125 244.25 179.378906 243.777344 180.527344 C 242.519531 183.582031 239.902344 188.464844 237.753906 190.945312 Z M 155.332031 126.65625 C 154.390625 125.847656 152.6875 128.902344 152.84375 129.554688 C 153.289062 131.460938 155.226562 141.855469 155.488281 142.089844 C 156.355469 142.847656 159.707031 142.140625 159.839844 138.746094 C 159.996094 134.777344 156.746094 127.859375 155.332031 126.65625 Z M 207.859375 129.582031 C 206.890625 130.574219 204.351562 130.992188 203.929688 129.765625 C 203.144531 127.492188 202.960938 116.8125 203.195312 115.949219 C 203.300781 115.53125 204.714844 116.003906 204.898438 116.082031 C 206.5 116.734375 207.492188 118.25 208.097656 119.789062 C 208.644531 121.171875 208.910156 122.636719 209.066406 124.097656 C 209.195312 125.296875 209.300781 128.09375 207.859375 129.582031 Z M 177.15625 126.917969 C 177.3125 128.746094 172.441406 129.191406 172.179688 128.015625 C 171.367188 124.332031 170.394531 118.011719 170.421875 116.289062 C 170.449219 114.957031 174.351562 114.488281 175.6875 116.34375 C 176.738281 117.832031 177.023438 125.558594 177.15625 126.917969 Z M 191.539062 114.878906 C 193.164062 117.4375 194.789062 124.386719 192.980469 126.210938 C 192.140625 127.074219 189.703125 127.597656 188.996094 126.789062 C 187.53125 125.167969 187.007812 113.234375 187.6875 113.027344 C 189.207031 112.554688 190.804688 113.703125 191.539062 114.878906 Z M 191.539062 114.878906 " fill-opacity="1" fill-rule="evenodd"/><path fill="#50d6d3" d="M 203.378906 115.976562 L 205.605469 130.496094 C 205.214844 130.519531 204.847656 130.46875 204.535156 130.339844 L 203.171875 122.140625 C 203.066406 119.242188 203.066406 116.523438 203.171875 115.976562 Z M 205.1875 116.183594 L 206.996094 130.128906 C 207.335938 129.972656 207.625 129.789062 207.859375 129.554688 C 208.121094 129.292969 208.304688 129.007812 208.464844 128.667969 L 206.523438 117.175781 C 206.15625 116.8125 205.710938 116.445312 205.1875 116.183594 Z M 189.886719 113.339844 L 191.667969 126.945312 C 192.21875 126.761719 192.691406 126.527344 192.980469 126.210938 C 193.058594 126.132812 193.136719 126.03125 193.1875 125.925781 L 191.277344 114.515625 C 190.9375 114.070312 190.4375 113.625 189.886719 113.339844 Z M 239.167969 179.484375 L 234.007812 190.84375 C 234.269531 191.050781 234.609375 191.183594 234.949219 191.261719 L 241.472656 177.265625 C 240.871094 177.65625 240.058594 178.4375 239.167969 179.484375 Z M 243.410156 177.316406 L 236.546875 191.3125 C 237.152344 191.234375 237.621094 191.078125 237.726562 190.972656 C 238.40625 190.214844 239.117188 189.199219 239.796875 188.101562 L 244.25 178.203125 Z M 170.683594 115.742188 L 172.78125 128.511719 C 173.070312 128.613281 173.460938 128.640625 173.855469 128.640625 L 171.8125 115.21875 C 171.339844 115.324219 170.921875 115.507812 170.683594 115.742188 Z M 152.949219 128.953125 L 155.960938 142.324219 C 156.457031 142.429688 157.140625 142.375 157.792969 142.0625 L 153.601562 127.675781 C 153.339844 128.09375 153.078125 128.5625 152.949219 128.953125 Z M 187.714844 113.027344 C 187.476562 113.105469 187.398438 114.488281 187.425781 116.394531 L 189.15625 126.917969 C 189.417969 127.101562 189.808594 127.179688 190.253906 127.179688 L 188.054688 112.949219 C 187.949219 112.972656 187.820312 112.972656 187.714844 113.027344 Z M 156.5625 128.300781 C 156.144531 127.570312 155.75 127.023438 155.4375 126.707031 L 154.753906 126.628906 L 159.105469 140.757812 L 159.445312 140.496094 C 159.679688 140.027344 159.863281 139.425781 159.890625 138.746094 C 159.890625 138.5625 159.890625 138.382812 159.890625 138.199219 Z M 173.59375 115.191406 L 175.320312 128.484375 C 175.976562 128.328125 176.554688 128.039062 176.867188 127.675781 L 174.824219 115.636719 C 174.457031 115.429688 174.039062 115.269531 173.59375 115.191406 Z M 173.59375 115.191406 " fill-opacity="0.42" fill-rule="nonzero"/></g><path fill="#50d6d3" d="M 207.964844 119.5 L 203.09375 120.179688 C 203.066406 119.527344 203.066406 118.925781 203.066406 118.378906 L 207.046875 117.882812 C 207.441406 118.378906 207.730469 118.925781 207.964844 119.5 Z M 208.59375 121.40625 L 203.171875 122.320312 C 203.195312 122.871094 203.222656 123.445312 203.25 123.992188 L 208.910156 122.921875 C 208.828125 122.398438 208.726562 121.902344 208.59375 121.40625 Z M 191.539062 114.878906 C 191.539062 114.855469 191.511719 114.855469 191.511719 114.828125 L 187.398438 115.324219 C 187.398438 115.871094 187.398438 116.472656 187.425781 117.152344 L 192.324219 116.472656 C 192.089844 115.847656 191.800781 115.296875 191.539062 114.878906 Z M 203.5625 127.859375 L 209.039062 126.8125 C 209.117188 126.265625 209.144531 125.714844 209.144531 125.246094 L 203.40625 126.1875 C 203.460938 126.789062 203.511719 127.363281 203.5625 127.859375 Z M 239.875 178.671875 C 239.429688 179.144531 238.933594 179.71875 238.433594 180.320312 L 242.992188 182.277344 C 243.28125 181.652344 243.542969 181.078125 243.753906 180.527344 C 243.753906 180.5 243.777344 180.476562 243.777344 180.421875 Z M 235.789062 184.027344 L 241.105469 185.960938 C 241.394531 185.4375 241.683594 184.890625 241.972656 184.367188 L 236.914062 182.382812 C 236.523438 182.902344 236.15625 183.453125 235.789062 184.027344 Z M 233.746094 188.023438 L 238.644531 189.796875 C 238.984375 189.328125 239.351562 188.804688 239.691406 188.257812 L 234.503906 186.21875 C 234.191406 186.875 233.929688 187.472656 233.746094 188.023438 Z M 192.980469 118.378906 L 187.53125 119.292969 C 187.554688 119.839844 187.609375 120.414062 187.660156 120.964844 L 193.347656 119.894531 C 193.269531 119.371094 193.136719 118.875 192.980469 118.378906 Z M 171.574219 125.011719 C 171.679688 125.585938 171.785156 126.132812 171.890625 126.65625 L 177.078125 125.664062 C 177.050781 125.21875 177.023438 124.699219 176.972656 124.125 Z M 156.773438 128.71875 L 153.132812 130.9375 C 153.234375 131.515625 153.394531 132.167969 153.523438 132.921875 L 157.742188 130.679688 C 157.429688 129.945312 157.085938 129.292969 156.773438 128.71875 Z M 158.527344 132.558594 L 153.996094 135.300781 C 154.128906 135.980469 154.257812 136.632812 154.390625 137.285156 L 159.105469 134.308594 C 158.949219 133.734375 158.738281 133.132812 158.527344 132.558594 Z M 187.949219 123.15625 C 188.027344 123.757812 188.132812 124.304688 188.238281 124.800781 L 193.765625 123.757812 C 193.792969 123.261719 193.765625 122.738281 193.714844 122.21875 Z M 154.808594 139.242188 C 154.964844 140.027344 155.121094 140.730469 155.253906 141.226562 L 159.863281 138.304688 C 159.863281 137.675781 159.757812 137.023438 159.628906 136.320312 Z M 175.792969 116.578125 L 170.449219 117.230469 C 170.5 117.726562 170.554688 118.351562 170.632812 119.03125 L 176.292969 118.25 C 176.160156 117.542969 176.003906 116.96875 175.792969 116.578125 Z M 176.605469 120.234375 L 170.945312 121.171875 C 171.023438 121.722656 171.105469 122.269531 171.207031 122.816406 L 176.789062 121.746094 C 176.710938 121.25 176.65625 120.730469 176.605469 120.234375 Z M 176.605469 120.234375 " fill-opacity="0.42" fill-rule="nonzero"/><g clip-path="url(#ff6e10ad95)"><path fill="#50d6d3" d="M 178.335938 248.8125 C 174.980469 254.296875 170.421875 259.570312 168.613281 260.121094 C 160.78125 262.445312 157.507812 246.75 155.488281 246.828125 C 149.148438 247.0625 133.246094 252.835938 130.785156 246.070312 C 130.3125 244.765625 138.304688 238.601562 144.566406 232.960938 C 149.148438 228.8125 149.203125 224.660156 153.054688 225.285156 C 159.234375 226.277344 180.324219 238.523438 181.636719 238.917969 C 186.769531 240.40625 181.609375 243.484375 178.335938 248.8125 Z M 178.335938 248.8125 " fill-opacity="1" fill-rule="evenodd"/></g><path fill="#ffac09" d="M 190.230469 143.394531 C 190.28125 143.289062 190.414062 143.238281 190.515625 143.265625 C 190.515625 143.265625 190.515625 143.265625 190.542969 143.265625 C 190.570312 143.265625 190.621094 143.238281 190.675781 143.238281 C 190.804688 143.210938 190.988281 143.132812 191.171875 143.054688 C 191.277344 143.003906 191.40625 142.953125 191.539062 142.925781 C 191.667969 142.871094 191.800781 142.847656 191.933594 142.820312 C 192.089844 142.792969 192.21875 142.769531 192.351562 142.742188 C 192.664062 142.691406 192.902344 142.664062 193.058594 142.664062 C 193.1875 142.636719 193.320312 142.742188 193.320312 142.871094 C 193.347656 143.003906 193.242188 143.132812 193.109375 143.132812 C 193.003906 143.160156 192.875 143.210938 192.691406 143.289062 C 192.558594 143.34375 192.402344 143.421875 192.246094 143.472656 C 192.140625 143.5 192.035156 143.550781 191.933594 143.578125 C 191.828125 143.605469 191.722656 143.628906 191.617188 143.65625 C 191.460938 143.683594 191.304688 143.707031 191.171875 143.707031 C 190.804688 143.734375 190.492188 143.707031 190.386719 143.65625 C 190.230469 143.628906 190.175781 143.5 190.230469 143.394531 Z M 174.851562 145.5625 C 174.902344 145.613281 174.929688 145.589844 174.929688 145.535156 L 174.902344 145.535156 Z M 159.890625 153.972656 C 159.8125 153.972656 159.234375 154.050781 159 154.023438 C 158.921875 154.023438 158.867188 154.023438 158.84375 153.996094 C 158.738281 153.917969 158.6875 153.867188 158.6875 153.789062 C 158.6875 153.65625 158.789062 153.578125 158.894531 153.578125 C 158.921875 153.578125 158.921875 153.578125 158.949219 153.578125 C 158.949219 153.578125 158.949219 153.578125 158.972656 153.578125 C 159.078125 153.554688 159.261719 153.476562 159.417969 153.394531 C 159.578125 153.316406 159.734375 153.265625 159.757812 153.265625 C 159.863281 153.238281 159.96875 153.214844 160.074219 153.1875 C 160.179688 153.160156 160.285156 153.160156 160.386719 153.160156 C 160.546875 153.160156 160.730469 153.136719 160.886719 153.136719 C 161.042969 153.136719 161.199219 153.136719 161.382812 153.136719 C 161.515625 153.109375 161.644531 153.214844 161.671875 153.34375 C 161.699219 153.476562 161.59375 153.605469 161.460938 153.632812 C 161.253906 153.683594 161.015625 153.761719 160.808594 153.8125 C 160.652344 153.839844 160.519531 153.890625 160.363281 153.917969 C 160.207031 153.945312 160.046875 153.945312 159.890625 153.972656 Z M 159.078125 153.710938 C 159.078125 153.683594 159.050781 153.65625 159.027344 153.632812 C 159.050781 153.65625 159.078125 153.683594 159.078125 153.710938 Z M 204.980469 145.589844 C 205.265625 145.511719 205.582031 145.457031 205.894531 145.378906 C 206.210938 145.328125 206.523438 145.25 206.8125 145.195312 C 207.230469 145.117188 207.652344 145.066406 208.070312 145.066406 C 208.199219 145.066406 208.332031 144.960938 208.332031 144.832031 C 208.332031 144.699219 208.226562 144.570312 208.097656 144.570312 C 207.546875 144.519531 206.96875 144.492188 206.394531 144.542969 C 206.15625 144.570312 205.949219 144.597656 205.710938 144.648438 C 205.371094 144.726562 205.058594 144.832031 204.742188 144.9375 C 204.585938 144.988281 204.429688 145.066406 204.269531 145.144531 C 204.113281 145.222656 203.957031 145.300781 203.824219 145.40625 C 203.746094 145.457031 203.640625 145.613281 203.5625 145.691406 C 203.539062 145.691406 203.511719 145.691406 203.484375 145.71875 C 203.511719 145.71875 203.511719 145.71875 203.539062 145.71875 C 203.511719 145.746094 203.484375 145.769531 203.460938 145.746094 C 203.460938 145.746094 203.460938 145.71875 203.460938 145.71875 C 203.433594 145.746094 203.40625 145.769531 203.378906 145.796875 C 203.328125 145.875 203.355469 145.953125 203.355469 145.980469 C 203.355469 146.085938 203.484375 146.242188 203.695312 146.109375 C 203.746094 146.085938 203.957031 145.902344 204.0625 145.875 C 204.167969 145.824219 204.296875 145.796875 204.402344 145.746094 C 204.613281 145.667969 204.796875 145.613281 204.980469 145.589844 Z M 205.816406 148.277344 C 205.738281 148.277344 205.632812 148.253906 205.554688 148.277344 C 205.476562 148.277344 205.398438 148.304688 205.320312 148.332031 C 205.1875 148.382812 205.082031 148.433594 204.953125 148.460938 C 204.847656 148.460938 204.742188 148.539062 204.714844 148.644531 C 204.714844 148.773438 204.796875 148.851562 204.898438 148.878906 C 205.058594 148.929688 205.1875 148.984375 205.34375 149.007812 C 205.449219 149.035156 205.527344 149.035156 205.632812 149.035156 C 205.738281 149.035156 205.816406 149.007812 205.894531 148.984375 C 206.027344 148.929688 206.132812 148.878906 206.261719 148.851562 C 206.394531 148.851562 206.5 148.722656 206.5 148.589844 C 206.5 148.460938 206.367188 148.355469 206.234375 148.355469 C 206.105469 148.332031 205.972656 148.304688 205.816406 148.277344 Z M 204.796875 151.59375 C 204.585938 151.464844 204.375 151.308594 204.296875 151.253906 C 204.246094 151.203125 204.21875 151.175781 204.21875 151.152344 C 204.191406 151.019531 204.191406 150.941406 204.246094 150.890625 C 204.269531 150.863281 204.375 150.757812 204.535156 150.835938 C 204.558594 150.835938 204.558594 150.835938 204.585938 150.863281 C 204.585938 150.890625 204.585938 150.914062 204.613281 150.914062 C 204.613281 150.914062 204.613281 150.863281 204.585938 150.863281 C 204.613281 150.890625 204.636719 150.914062 204.664062 150.941406 C 204.820312 150.992188 205.109375 151.019531 205.214844 151.019531 C 205.371094 151.046875 205.527344 151.019531 205.710938 151.019531 C 205.871094 151.019531 206.027344 151.046875 206.183594 151.046875 C 206.417969 151.074219 206.679688 151.074219 206.917969 151.097656 C 207.046875 151.074219 207.179688 151.175781 207.179688 151.308594 C 207.207031 151.4375 207.101562 151.570312 206.96875 151.570312 C 206.761719 151.621094 206.550781 151.671875 206.316406 151.726562 C 206.15625 151.75 206.027344 151.777344 205.871094 151.777344 C 205.765625 151.777344 205.660156 151.777344 205.554688 151.777344 C 205.398438 151.75 205.242188 151.726562 205.082031 151.699219 C 205.003906 151.699219 204.898438 151.671875 204.796875 151.59375 Z M 204.480469 151.253906 C 204.453125 151.253906 204.402344 151.253906 204.375 151.253906 C 204.375 151.253906 204.351562 151.253906 204.351562 151.253906 C 204.351562 151.332031 204.429688 151.308594 204.480469 151.253906 Z M 167.332031 181.78125 C 167.277344 182.382812 167.304688 182.984375 167.355469 183.609375 C 167.515625 185.097656 167.90625 186.636719 168.039062 188.046875 C 168.066406 188.179688 167.960938 188.308594 167.828125 188.308594 C 167.699219 188.335938 167.566406 188.230469 167.566406 188.101562 C 167.382812 186.714844 166.910156 185.175781 166.675781 183.714844 C 166.570312 183.035156 166.546875 182.355469 166.570312 181.730469 C 166.625 181.078125 166.78125 180.449219 166.992188 179.796875 C 167.304688 178.882812 167.699219 177.996094 168.039062 177.132812 L 168.929688 174.835938 L 169.242188 173.972656 C 169.269531 173.894531 169.269531 173.710938 169.296875 173.632812 C 169.320312 173.554688 169.347656 173.503906 169.402344 173.476562 C 169.453125 173.453125 169.503906 173.425781 169.558594 173.425781 C 169.609375 173.425781 169.664062 173.453125 169.714844 173.503906 C 169.792969 173.582031 169.792969 173.710938 169.714844 173.816406 C 169.714844 173.816406 169.6875 173.84375 169.6875 173.84375 C 169.6875 173.921875 169.714844 174.050781 169.6875 174.105469 L 169.425781 174.992188 L 168.667969 177.34375 C 168.378906 178.203125 168.011719 179.089844 167.722656 180.003906 C 167.539062 180.605469 167.382812 181.179688 167.332031 181.78125 Z M 169.664062 173.816406 C 169.714844 173.789062 169.769531 173.765625 169.714844 173.738281 C 169.664062 173.738281 169.664062 173.765625 169.664062 173.816406 Z M 217.398438 198.859375 C 217.398438 198.832031 217.398438 198.78125 217.421875 198.753906 C 217.398438 198.730469 217.398438 198.808594 217.398438 198.859375 Z M 193.6875 145.144531 C 193.554688 145.144531 193.425781 145.117188 193.269531 145.117188 C 193.136719 145.117188 193.003906 145.117188 192.847656 145.117188 C 192.769531 145.117188 192.664062 145.117188 192.585938 145.144531 C 192.507812 145.171875 192.402344 145.171875 192.324219 145.195312 C 192.167969 145.25 191.773438 145.328125 191.644531 145.355469 C 191.511719 145.378906 191.460938 145.433594 191.460938 145.433594 C 191.460938 145.457031 191.355469 145.851562 191.644531 145.796875 L 191.667969 145.796875 L 191.644531 145.796875 C 191.722656 145.796875 191.90625 145.851562 192.0625 145.875 C 192.195312 145.902344 192.296875 145.902344 192.378906 145.902344 C 192.457031 145.902344 192.558594 145.902344 192.640625 145.875 C 192.71875 145.875 192.824219 145.851562 192.902344 145.824219 C 193.03125 145.796875 193.164062 145.746094 193.292969 145.71875 C 193.425781 145.667969 193.554688 145.640625 193.6875 145.589844 C 193.816406 145.5625 193.921875 145.457031 193.898438 145.300781 C 193.949219 145.222656 193.816406 145.117188 193.6875 145.144531 Z M 174.851562 145.5625 C 174.824219 145.535156 174.875 145.535156 174.902344 145.511719 L 174.929688 145.511719 L 174.929688 145.535156 C 174.929688 145.535156 174.929688 145.535156 174.929688 145.5625 C 175.191406 145.484375 175.664062 145.328125 175.742188 145.300781 C 175.871094 145.273438 176.003906 145.222656 176.160156 145.195312 C 176.292969 145.171875 176.421875 145.117188 176.554688 145.066406 C 176.816406 144.988281 177.078125 144.882812 177.339844 144.804688 C 177.574219 144.753906 177.785156 144.675781 178.019531 144.648438 C 178.152344 144.648438 178.257812 144.519531 178.257812 144.386719 C 178.257812 144.257812 178.152344 144.152344 177.992188 144.152344 C 177.574219 144.125 177.128906 144.152344 176.683594 144.230469 C 176.527344 144.257812 176.34375 144.308594 176.1875 144.359375 C 175.949219 144.441406 175.714844 144.542969 175.480469 144.648438 C 175.425781 144.675781 175.085938 144.882812 174.851562 145.015625 C 174.746094 145.066406 174.667969 145.117188 174.640625 145.144531 C 174.613281 145.144531 174.613281 145.171875 174.589844 145.171875 C 174.5625 145.195312 174.535156 145.195312 174.535156 145.222656 C 174.457031 145.273438 174.484375 145.355469 174.484375 145.378906 C 174.484375 145.457031 174.507812 145.511719 174.5625 145.5625 C 174.589844 145.589844 174.640625 145.613281 174.746094 145.613281 C 174.746094 145.589844 174.796875 145.589844 174.851562 145.5625 Z M 179.382812 147.234375 C 179.382812 147.363281 179.277344 147.46875 179.121094 147.46875 C 178.910156 147.496094 178.703125 147.519531 178.464844 147.574219 C 178.203125 147.625 177.96875 147.703125 177.707031 147.78125 C 177.523438 147.835938 177.363281 147.886719 177.183594 147.9375 C 176.972656 147.992188 176.738281 148.042969 176.527344 148.09375 C 176.292969 148.148438 176.054688 148.171875 175.847656 148.226562 C 175.742188 148.253906 175.242188 148.355469 175.035156 148.355469 C 174.929688 148.355469 174.851562 148.355469 174.824219 148.332031 C 174.773438 148.277344 174.71875 148.253906 174.71875 148.199219 C 174.691406 148.09375 174.746094 147.964844 174.875 147.9375 C 174.902344 147.9375 174.929688 147.9375 174.980469 147.9375 C 175.007812 147.9375 175.007812 147.9375 175.035156 147.964844 C 175.035156 147.964844 175.007812 147.9375 175.007812 147.9375 C 175.191406 147.886719 175.664062 147.675781 175.742188 147.652344 C 176.054688 147.546875 176.371094 147.417969 176.710938 147.3125 C 176.917969 147.234375 177.15625 147.179688 177.390625 147.128906 C 177.628906 147.078125 177.863281 147.050781 178.097656 147.023438 C 178.464844 147 178.832031 146.972656 179.171875 147.023438 C 179.277344 146.972656 179.382812 147.101562 179.382812 147.234375 Z M 175.085938 147.992188 C 175.058594 147.964844 175.058594 147.9375 175.035156 147.9375 C 175.058594 147.9375 175.085938 147.964844 175.085938 147.992188 Z M 184.859375 174.574219 C 184.753906 174.601562 184.675781 174.730469 184.699219 174.835938 C 184.753906 175.148438 184.726562 175.515625 184.675781 175.90625 C 184.515625 176.820312 184.175781 177.839844 184.019531 178.515625 C 183.914062 179.144531 183.785156 179.746094 183.707031 180.371094 C 183.625 180.996094 183.574219 181.625 183.523438 182.25 C 183.46875 183.503906 183.523438 184.757812 183.707031 186.039062 C 183.730469 186.167969 183.835938 186.273438 183.992188 186.246094 C 184.125 186.21875 184.230469 186.117188 184.203125 185.960938 C 184.097656 184.96875 184.125 183.976562 184.175781 183.007812 C 184.230469 182.277344 184.308594 181.546875 184.414062 180.816406 C 184.515625 180.082031 184.597656 179.351562 184.699219 178.59375 C 184.804688 177.890625 185.09375 176.847656 185.171875 175.933594 C 185.199219 175.460938 185.199219 175.042969 185.09375 174.703125 C 185.09375 174.625 184.960938 174.546875 184.859375 174.574219 Z M 162.457031 155.171875 C 162.511719 155.300781 162.457031 155.433594 162.328125 155.484375 C 162.066406 155.617188 161.804688 155.796875 161.542969 155.957031 C 161.359375 156.058594 161.199219 156.164062 161.015625 156.269531 C 160.832031 156.375 160.625 156.453125 160.441406 156.554688 C 160.207031 156.660156 159.757812 157.105469 159.601562 157.15625 C 159.472656 157.207031 159.394531 157.207031 159.339844 157.183594 C 159.289062 157.15625 159.234375 157.128906 159.210938 157.050781 C 159.210938 157.027344 159.183594 156.949219 159.234375 156.84375 C 159.261719 156.765625 159.3125 156.710938 159.394531 156.710938 L 159.417969 156.6875 C 159.496094 156.582031 159.578125 156.453125 159.679688 156.320312 C 159.8125 156.164062 159.941406 156.035156 160.023438 155.957031 C 160.179688 155.851562 160.308594 155.746094 160.492188 155.640625 C 160.597656 155.589844 160.703125 155.539062 160.808594 155.484375 C 160.964844 155.40625 161.148438 155.328125 161.304688 155.277344 C 161.566406 155.171875 161.828125 155.09375 162.089844 155.042969 C 162.273438 154.964844 162.40625 155.042969 162.457031 155.171875 Z M 159.679688 156.921875 C 159.679688 156.949219 159.679688 156.972656 159.679688 157 C 159.679688 157 159.679688 157.027344 159.679688 157.027344 C 159.707031 157 159.679688 156.949219 159.679688 156.921875 Z M 195.417969 178.335938 C 195.363281 178.308594 195.285156 178.308594 195.152344 178.335938 C 195.050781 178.386719 194.996094 178.492188 195.023438 178.621094 C 195.050781 178.648438 195.050781 178.699219 195.101562 178.699219 C 194.996094 178.960938 194.761719 179.378906 194.707031 179.613281 C 194.628906 180.03125 194.550781 180.449219 194.472656 180.867188 C 194.394531 181.285156 194.34375 181.703125 194.289062 182.121094 C 194.210938 182.824219 194.132812 183.53125 194.078125 184.234375 C 194.054688 184.890625 194.027344 185.542969 194 186.21875 C 193.976562 187.210938 193.976562 188.179688 193.898438 189.171875 C 193.871094 189.300781 193.976562 189.433594 194.132812 189.433594 C 194.261719 189.433594 194.394531 189.355469 194.394531 189.199219 C 194.5 188.257812 194.605469 187.316406 194.683594 186.378906 C 194.734375 185.671875 194.789062 184.96875 194.839844 184.261719 C 194.890625 183.558594 194.917969 182.878906 194.996094 182.171875 C 195.023438 181.675781 195.074219 181.179688 195.128906 180.660156 C 195.152344 180.320312 195.207031 179.980469 195.234375 179.667969 C 195.257812 179.457031 195.441406 179.066406 195.519531 178.832031 C 195.574219 178.648438 195.574219 178.515625 195.546875 178.4375 C 195.519531 178.414062 195.46875 178.359375 195.417969 178.335938 Z M 203.511719 145.691406 C 203.484375 145.691406 203.484375 145.691406 203.511719 145.691406 Z M 174.980469 147.886719 C 174.953125 147.886719 174.953125 147.886719 174.980469 147.886719 C 174.953125 147.886719 174.953125 147.886719 174.980469 147.886719 Z M 217.582031 198.648438 C 217.5 198.648438 217.449219 198.703125 217.398438 198.753906 C 217.421875 198.78125 217.398438 198.808594 217.371094 198.832031 C 217.371094 198.832031 217.371094 198.859375 217.371094 198.859375 L 217.371094 198.832031 C 217.238281 198.9375 216.792969 199.015625 216.742188 199.042969 L 214.148438 200.085938 C 213.285156 200.453125 212.445312 200.84375 211.632812 201.289062 C 211.082031 201.574219 210.558594 201.886719 210.035156 202.226562 C 209.25 202.722656 208.488281 203.246094 207.753906 203.820312 C 206.628906 204.65625 205.582031 205.542969 204.53125 206.433594 C 204.429688 206.511719 204.402344 206.667969 204.507812 206.769531 C 204.585938 206.875 204.742188 206.902344 204.847656 206.796875 C 205.605469 206.222656 206.367188 205.648438 207.125 205.101562 C 207.886719 204.550781 208.671875 204.003906 209.484375 203.507812 C 209.878906 203.246094 210.269531 203.011719 210.691406 202.75 C 211.109375 202.488281 211.503906 202.253906 211.894531 202.019531 C 212.707031 201.546875 213.546875 201.078125 214.382812 200.6875 L 216.925781 199.484375 C 216.976562 199.460938 217.5 199.226562 217.660156 199.09375 C 217.761719 199.015625 217.789062 198.910156 217.789062 198.832031 C 217.816406 198.730469 217.710938 198.648438 217.582031 198.648438 Z M 192.847656 147.652344 C 192.824219 147.652344 192.535156 147.546875 192.140625 147.417969 C 191.984375 147.363281 191.828125 147.3125 191.667969 147.261719 C 191.511719 147.207031 191.355469 147.179688 191.171875 147.15625 C 190.882812 147.101562 190.648438 147.078125 190.492188 147.023438 C 190.464844 147.023438 190.464844 147.023438 190.4375 147 C 190.4375 146.945312 190.414062 146.867188 190.332031 146.84375 C 190.230469 146.765625 190.097656 146.789062 190.046875 146.894531 C 189.992188 146.945312 189.992188 147 189.992188 147.050781 C 189.964844 147.128906 190.019531 147.234375 190.097656 147.339844 C 190.203125 147.46875 190.464844 147.625 190.777344 147.78125 C 190.910156 147.835938 191.039062 147.886719 191.171875 147.9375 C 191.304688 147.992188 191.433594 148.015625 191.566406 148.042969 C 191.722656 148.070312 191.90625 148.09375 192.0625 148.09375 C 192.457031 148.121094 192.769531 148.148438 192.824219 148.121094 C 192.953125 148.121094 193.085938 148.042969 193.085938 147.886719 C 193.085938 147.78125 192.980469 147.675781 192.847656 147.652344 Z M 168.351562 168.125 C 168.484375 168.175781 168.613281 168.125 168.695312 168.019531 C 168.902344 167.679688 169.085938 167.261719 169.269531 166.792969 C 169.375 166.53125 169.480469 166.242188 169.558594 165.984375 C 169.636719 165.746094 169.6875 165.539062 169.769531 165.304688 C 169.847656 165.070312 169.898438 164.859375 170.003906 164.652344 C 170.109375 164.363281 170.238281 164.128906 170.394531 163.921875 C 170.476562 163.839844 170.476562 163.710938 170.394531 163.605469 C 170.316406 163.527344 170.1875 163.527344 170.082031 163.605469 C 169.820312 163.839844 169.558594 164.15625 169.347656 164.519531 C 169.21875 164.730469 169.113281 164.964844 169.007812 165.199219 C 168.929688 165.355469 168.875 165.539062 168.824219 165.722656 C 168.773438 165.90625 168.71875 166.0625 168.667969 166.242188 C 168.589844 166.503906 168.535156 166.765625 168.457031 167.027344 C 168.378906 167.289062 168.328125 167.550781 168.222656 167.785156 C 168.167969 167.914062 168.222656 168.070312 168.351562 168.125 Z M 184.882812 163.03125 L 184.882812 163.007812 C 184.804688 162.980469 184.832031 163.03125 184.859375 163.085938 Z M 199.003906 166.296875 C 199.03125 166.324219 199.058594 166.296875 199.003906 166.296875 Z M 185.144531 162.824219 C 185.042969 162.796875 184.910156 162.847656 184.882812 162.953125 C 184.882812 162.953125 184.882812 162.980469 184.882812 162.980469 C 184.882812 162.980469 184.882812 163.007812 184.882812 163.007812 C 184.882812 163.03125 184.882812 163.058594 184.882812 163.085938 C 184.882812 163.085938 184.859375 163.058594 184.859375 163.058594 C 184.859375 163.085938 184.832031 163.085938 184.832031 163.109375 C 184.699219 163.476562 184.335938 164.390625 184.308594 164.441406 C 184.152344 164.886719 183.941406 165.304688 183.757812 165.746094 C 183.679688 165.929688 183.601562 166.085938 183.546875 166.269531 C 183.441406 166.53125 183.339844 166.792969 183.207031 167.054688 C 182.945312 167.628906 182.683594 168.175781 182.371094 168.726562 C 182.289062 168.828125 182.316406 168.984375 182.449219 169.0625 C 182.578125 169.140625 182.710938 169.117188 182.789062 168.984375 C 183.023438 168.671875 183.261719 168.332031 183.46875 167.992188 C 183.679688 167.652344 183.890625 167.289062 184.070312 166.949219 C 184.152344 166.765625 184.253906 166.582031 184.335938 166.402344 C 184.414062 166.21875 184.492188 166.035156 184.570312 165.828125 C 184.699219 165.433594 184.832031 165.070312 184.9375 164.675781 C 184.960938 164.625 185.171875 163.660156 185.277344 163.265625 C 185.304688 163.1875 185.304688 163.136719 185.304688 163.109375 C 185.328125 162.902344 185.171875 162.824219 185.144531 162.824219 Z M 199.058594 165.984375 C 199.003906 165.90625 198.902344 165.828125 198.71875 165.957031 C 198.691406 165.984375 198.636719 166.035156 198.558594 166.113281 C 198.296875 166.480469 197.695312 167.417969 197.667969 167.472656 C 197.511719 167.785156 197.328125 168.070312 197.144531 168.359375 C 196.960938 168.644531 196.804688 168.960938 196.621094 169.246094 C 196.386719 169.640625 196.148438 170.03125 195.863281 170.394531 C 195.78125 170.5 195.78125 170.65625 195.886719 170.734375 C 195.992188 170.8125 196.148438 170.8125 196.226562 170.710938 C 196.648438 170.265625 197.039062 169.820312 197.40625 169.324219 C 197.589844 169.089844 197.746094 168.828125 197.90625 168.566406 C 198.0625 168.308594 198.167969 168.019531 198.296875 167.757812 C 198.324219 167.707031 198.742188 166.714844 198.953125 166.324219 C 198.953125 166.296875 198.980469 166.296875 198.980469 166.269531 C 198.953125 166.269531 198.925781 166.269531 198.902344 166.269531 C 198.925781 166.269531 198.953125 166.242188 198.980469 166.242188 C 198.980469 166.21875 198.980469 166.21875 199.003906 166.21875 C 199.109375 166.21875 199.136719 166.085938 199.058594 165.984375 Z M 170.839844 215.152344 C 170.867188 217.425781 170.867188 219.722656 170.867188 221.996094 C 170.867188 222.125 170.761719 222.257812 170.632812 222.257812 C 170.5 222.257812 170.371094 222.152344 170.371094 222.019531 C 170.292969 218.863281 170.1875 215.675781 170.054688 212.515625 C 170.003906 211.261719 169.949219 209.984375 169.925781 208.730469 C 169.847656 206.824219 169.792969 204.945312 169.6875 203.039062 C 169.664062 202.148438 169.609375 201.261719 169.558594 200.375 C 169.503906 199.484375 169.453125 198.597656 169.402344 197.710938 C 169.375 197.421875 169.21875 195.648438 169.085938 194.96875 C 169.085938 194.917969 169.085938 194.863281 169.058594 194.835938 C 169.058594 194.835938 169.058594 194.835938 169.035156 194.8125 C 169.035156 194.785156 169.035156 194.757812 169.007812 194.757812 C 169.007812 194.757812 168.980469 194.757812 168.980469 194.785156 C 168.929688 194.707031 168.929688 194.601562 168.980469 194.523438 C 169.035156 194.472656 169.085938 194.445312 169.113281 194.445312 C 169.164062 194.421875 169.269531 194.445312 169.320312 194.523438 C 169.347656 194.550781 169.402344 194.679688 169.453125 194.890625 C 169.609375 195.59375 169.847656 197.421875 169.871094 197.683594 C 169.976562 198.753906 170.054688 199.800781 170.160156 200.871094 C 170.214844 201.574219 170.265625 202.28125 170.316406 203.011719 C 170.394531 204.289062 170.476562 205.542969 170.554688 206.824219 C 170.605469 208.101562 170.660156 209.355469 170.683594 210.636719 C 170.789062 212.097656 170.816406 213.640625 170.839844 215.152344 Z M 169.347656 194.785156 C 169.320312 194.8125 169.269531 194.835938 169.242188 194.835938 C 169.296875 194.835938 169.320312 194.8125 169.347656 194.785156 Z M 169.035156 194.757812 C 169.035156 194.757812 169.058594 194.757812 169.035156 194.757812 Z M 169.035156 194.757812 " fill-opacity="1" fill-rule="nonzero"/><path fill="#fdfaf4" d="M 163.480469 239.125 C 163.007812 238.679688 162.378906 238.394531 161.671875 238.421875 L 161.671875 238.394531 C 160.964844 238.367188 160.335938 238.65625 159.863281 239.125 C 159.394531 239.59375 159.105469 240.222656 159.078125 240.953125 C 159.050781 241.683594 159.339844 242.335938 159.8125 242.832031 C 160.285156 243.328125 160.9375 243.644531 161.671875 243.644531 C 162.40625 243.644531 163.0625 243.328125 163.53125 242.832031 C 163.976562 242.335938 164.265625 241.683594 164.238281 240.980469 C 164.265625 240.222656 163.953125 239.570312 163.480469 239.125 Z M 163.035156 242.285156 C 162.695312 242.625 162.222656 242.832031 161.699219 242.832031 C 161.175781 242.832031 160.703125 242.625 160.363281 242.285156 C 160.023438 241.945312 159.785156 241.476562 159.785156 240.925781 C 159.757812 240.378906 159.96875 239.882812 160.308594 239.515625 C 160.652344 239.152344 161.148438 238.890625 161.699219 238.890625 L 161.699219 238.863281 C 162.25 238.890625 162.746094 239.125 163.113281 239.515625 C 163.453125 239.882812 163.664062 240.378906 163.636719 240.925781 C 163.609375 241.449219 163.375 241.945312 163.035156 242.285156 Z M 163.035156 242.285156 " fill-opacity="1" fill-rule="evenodd"/><path fill="#ffac09" d="M 212.472656 164.390625 C 212 165.722656 210.953125 165.410156 209.851562 165.121094 C 208.933594 164.886719 208.042969 164.496094 207.152344 164.234375 C 206.707031 164.625 206.105469 164.832031 205.320312 164.597656 C 204.925781 164.496094 204.664062 164.207031 204.535156 163.839844 C 203.195312 163.738281 201.835938 163.660156 200.683594 163.085938 C 200.078125 162.796875 199.242188 162.222656 199.425781 161.414062 C 199.527344 161.046875 199.84375 160.707031 200.210938 160.578125 C 200.238281 160.578125 200.839844 160.445312 200.8125 160.5 C 200.96875 160.523438 201.101562 160.523438 201.257812 160.550781 C 202.488281 160.707031 203.773438 160.761719 205.03125 160.890625 C 205.136719 160.734375 205.242188 160.578125 205.34375 160.421875 C 205.765625 159.925781 206.890625 159.925781 207.074219 159.976562 C 207.519531 160.109375 207.808594 160.605469 207.914062 161.257812 C 208.59375 161.386719 209.273438 161.515625 209.929688 161.726562 C 211.238281 162.117188 213.101562 162.640625 212.472656 164.390625 Z M 170.894531 155.824219 C 170.894531 155.824219 170.839844 159.769531 170.972656 159.847656 C 171.550781 160.160156 182.578125 159.691406 183.339844 159.558594 C 183.546875 159.53125 184.046875 159.558594 184.125 159.296875 C 184.4375 158.382812 184.125 155.042969 184.070312 155.042969 C 183.339844 155.066406 172.519531 155.902344 170.894531 155.824219 Z M 170.894531 155.824219 " fill-opacity="1" fill-rule="evenodd"/></svg>