<svg xmlns="http://www.w3.org/2000/svg" xmlns:xlink="http://www.w3.org/1999/xlink" width="500" zoomAndPan="magnify" viewBox="0 40 375 200" height="200" preserveAspectRatio="xMidYMid meet" version="1.0"><defs><clipPath id="4c8d36d4d6"><path d="M 118.40625 112.5 L 250 112.5 L 250 262 L 118.40625 262 Z M 118.40625 112.5 " clip-rule="nonzero"/></clipPath></defs><path fill="#8e5c53" d="M 139.78125 201.628906 C 133.828125 192.433594 132.625 184.21875 126.878906 153.445312 C 126.851562 153.3125 126.453125 150.320312 126.449219 150.179688 C 126.34375 147.09375 125.472656 146.375 125.851562 144.785156 C 126.34375 142.734375 127.605469 139.667969 129.648438 138.203125 C 133.289062 135.59375 137.769531 138.761719 141.59375 141.539062 C 142.773438 142.390625 148.328125 148.359375 148.492188 148.640625 C 148.90625 149.34375 148.984375 149.0625 148.582031 149.875 C 143.070312 160.929688 145.578125 158.15625 149.714844 161.476562 C 150.179688 161.851562 150.792969 162.148438 151.304688 161.839844 C 152.40625 161.183594 152.695312 160.863281 152.722656 161.230469 C 152.722656 161.230469 153.660156 167.394531 153.90625 169.902344 C 154.742188 178.363281 156.832031 175.859375 159.402344 174.363281 C 162.617188 172.496094 165.710938 160.253906 172 147.890625 C 172.925781 146.0625 174.480469 143.832031 175.207031 142.308594 C 175.933594 140.792969 179.28125 137.980469 179.328125 138.425781 C 179.328125 138.425781 173.050781 149.421875 173.28125 151.8125 C 173.324219 152.265625 173.175781 152.648438 172.929688 153.035156 C 166.71875 162.949219 165.996094 165.417969 164.125 169.328125 C 163.078125 171.511719 161.953125 173.78125 163.804688 175.203125 C 167.46875 178.011719 168.839844 178.949219 170.8125 176.964844 C 176.789062 170.957031 174.359375 175.058594 188.714844 155.414062 C 189.347656 154.226562 189.84375 153 190.21875 151.71875 C 192.230469 144.878906 186.101562 135.773438 179.324219 144.292969 C 179.035156 144.65625 176.320312 147.78125 174.160156 151.167969 C 173.617188 152.019531 174.148438 150.351562 174.535156 149.425781 C 179.042969 138.691406 180.851562 137.199219 188.46875 129.082031 C 191.300781 126.0625 200.011719 120.722656 204.046875 120.09375 C 208.679688 119.371094 211.652344 120.832031 214.65625 122.5 C 216.714844 123.644531 217.46875 125.75 217.496094 126.371094 C 217.554688 127.585938 217.96875 127.617188 217.519531 132.085938 C 217.457031 132.695312 216.269531 140.855469 215.757812 141.238281 C 203.015625 150.828125 204.109375 148.667969 187.746094 164.6875 C 186.921875 165.496094 186.109375 166.375 185.972656 167.5 C 185.972656 167.5 172.773438 182.578125 170.875 187.316406 C 170.632812 187.921875 170.769531 188.476562 171.203125 188.917969 C 172.769531 190.511719 174.222656 192.933594 175.601562 192.199219 C 184.851562 187.273438 180.097656 189.164062 190.75 182.042969 C 191.183594 181.753906 191.605469 181.449219 192.023438 181.136719 C 192.921875 180.460938 204.414062 173.8125 204.160156 165.964844 C 204.050781 162.574219 201.683594 160.195312 199.085938 159.578125 C 195.945312 158.832031 191.148438 163.539062 188.582031 165.605469 C 188.398438 165.753906 188.308594 166.046875 187.996094 166 C 188.148438 164.753906 199.335938 155.363281 200.042969 154.660156 C 204.667969 150.054688 219.015625 139.058594 225.398438 137.617188 C 226.6875 137.328125 232.199219 139.429688 233.90625 141.894531 C 239.476562 149.9375 231.214844 161.5 226.789062 172.117188 C 222.144531 183.269531 229.875 176.503906 211.105469 183.0625 C 209.625 183.578125 209.066406 183.761719 206.914062 184.757812 C 205.632812 185.355469 206.121094 185.5 205.175781 185.695312 C 201.738281 186.417969 182.222656 191.519531 183.699219 194.574219 C 183.855469 196.003906 184.667969 198.855469 184.789062 199.21875 C 185.230469 200.578125 185.910156 201.070312 187.421875 200.859375 C 189.234375 200.601562 188.25 200.910156 195.394531 199.777344 C 208.476562 197.703125 198.570312 199.207031 211.421875 197.449219 C 214.671875 197.007812 219.933594 196.042969 221.910156 193.453125 C 222.742188 192.363281 223.394531 190.519531 223.113281 188.667969 C 222.429688 184.152344 215.539062 183.4375 211.113281 184.601562 C 210.921875 184.652344 208.976562 185.050781 208.941406 184.859375 C 208.777344 184.011719 225.992188 179.894531 226.359375 179.800781 C 229.394531 179.035156 236.574219 176.71875 240.324219 176.84375 C 242.867188 176.929688 243.855469 177.507812 244.9375 177.910156 C 245.609375 178.15625 245.464844 178.335938 246.074219 178.9375 C 256.417969 189.164062 236.484375 200.90625 231.296875 206.421875 C 226.230469 211.808594 225.640625 215.023438 218.925781 222.640625 C 213.503906 228.785156 211.261719 229.519531 208.023438 252.726562 C 207.8125 254.246094 207.40625 255.730469 207.246094 257.257812 C 207.171875 257.957031 206.808594 258.632812 206.082031 258.816406 C 204.675781 259.167969 201.160156 259.960938 199.675781 259.859375 C 187.917969 261.847656 159.570312 258.90625 154.234375 256.589844 C 153.734375 256.371094 153.488281 255.96875 153.457031 255.425781 C 153.410156 254.609375 153.519531 253.808594 153.71875 253.015625 C 160.875 224.652344 159.089844 226.4375 157.828125 222.140625 C 157.828125 222.140625 144.402344 208.765625 139.78125 201.628906 " fill-opacity="1" fill-rule="nonzero"/><path fill="#8e5c53" d="M 166.664062 128.632812 C 165.523438 128.667969 164.597656 128.902344 163.714844 129.277344 C 162.699219 129.710938 161.761719 130.285156 160.910156 131 C 160.488281 131.359375 160.046875 131.6875 159.675781 132.097656 C 159.464844 132.332031 159.28125 132.59375 159.074219 132.835938 C 159.046875 132.871094 158.980469 132.871094 158.933594 132.886719 C 158.925781 132.835938 158.894531 132.769531 158.914062 132.730469 C 159.292969 132.046875 159.664062 131.359375 160.058594 130.683594 C 160.457031 130.007812 160.863281 129.339844 161.285156 128.679688 C 161.535156 128.289062 161.820312 127.921875 162.089844 127.546875 C 162.550781 126.910156 162.992188 126.265625 163.476562 125.652344 C 164.035156 124.949219 164.625 124.273438 165.21875 123.601562 C 166.140625 122.554688 167.234375 121.679688 168.257812 120.742188 C 170.613281 118.582031 173.8125 116.976562 176.773438 115.957031 C 178.089844 115.507812 179.433594 115.152344 180.78125 114.816406 C 181.675781 114.597656 182.601562 114.496094 183.507812 114.335938 C 187.261719 113.6875 192.828125 113.492188 193.984375 117.457031 C 194.320312 118.445312 194.546875 119.46875 194.699219 120.5 C 194.796875 121.1875 194.878906 121.875 195.035156 122.550781 C 195.101562 122.835938 195.03125 123.058594 194.769531 123.222656 C 193.9375 123.75 193.109375 124.289062 192.277344 124.816406 C 190.882812 125.703125 189.570312 126.703125 188.277344 127.730469 C 187.914062 128.019531 187.605469 128.375 187.269531 128.699219 C 186.269531 129.667969 185.355469 130.714844 184.496094 131.808594 C 183.414062 133.179688 182.183594 134.421875 180.886719 135.582031 C 179.808594 136.542969 178.714844 137.492188 177.652344 138.480469 C 176.550781 139.503906 175.417969 140.496094 174.289062 141.492188 C 173.421875 142.261719 172.585938 143.0625 171.679688 143.785156 C 170.777344 144.507812 169.886719 145.253906 168.96875 145.957031 C 167.917969 146.761719 166.734375 147.285156 165.410156 147.457031 C 165.359375 147.464844 165.285156 147.441406 165.257812 147.40625 C 165.230469 147.375 165.238281 147.296875 165.257812 147.25 C 165.304688 147.148438 165.359375 147.039062 165.429688 146.953125 C 166.117188 146.132812 166.828125 145.328125 167.5 144.492188 C 168.371094 143.410156 169.257812 142.335938 170.058594 141.203125 C 171.035156 139.820312 171.847656 138.347656 172.179688 136.65625 C 172.269531 136.203125 172.355469 135.75 172.417969 135.292969 C 172.453125 135.0625 172.46875 134.816406 172.417969 134.597656 C 172.269531 133.917969 172.203125 133.230469 171.972656 132.5625 C 171.695312 131.75 171.238281 131.058594 170.734375 130.382812 C 170.699219 130.335938 170.664062 130.289062 170.617188 130.253906 C 169.71875 129.617188 168.84375 128.9375 167.691406 128.800781 C 167.292969 128.753906 166.90625 128.59375 166.664062 128.632812 " fill-opacity="1" fill-rule="nonzero"/><path fill="#7a4a43" d="M 229.050781 138.785156 C 229.605469 138.792969 232.394531 139.835938 233.585938 141.347656 C 234.695312 142.757812 235.488281 144.324219 235.800781 146.109375 C 235.839844 146.308594 235.835938 146.511719 235.847656 146.714844 C 235.871094 147.09375 235.851562 147.464844 235.910156 147.84375 C 235.960938 148.175781 235.835938 148.527344 235.859375 148.867188 C 235.902344 149.605469 235.738281 150.316406 235.609375 151.023438 C 235.238281 153.085938 234.585938 155.066406 233.796875 157.007812 C 233.214844 158.429688 232.613281 159.84375 231.972656 161.242188 C 231.535156 162.191406 231.078125 163.132812 230.625 164.074219 C 229.925781 165.542969 229.195312 166.996094 228.527344 168.476562 C 227.300781 171.191406 225.828125 174.105469 225.234375 177.164062 C 225.105469 177.824219 224.851562 178.4375 224.671875 179.082031 C 224.621094 179.265625 224.476562 179.359375 224.296875 179.402344 C 222.136719 179.882812 222.011719 180.503906 222.117188 176.492188 C 222.125 176.265625 222.199219 176.039062 222.234375 175.8125 C 222.242188 175.773438 222.167969 175.707031 222.128906 175.75 C 222.089844 175.792969 222.046875 175.835938 222.027344 175.886719 C 219.75 181.476562 226.101562 178.636719 216.445312 181.40625 C 211.367188 182.863281 206.945312 184.683594 206.582031 185.015625 C 205.554688 185.941406 204.722656 185.683594 200.484375 186.855469 C 197.082031 187.796875 186.535156 191.128906 184.257812 193.164062 C 183.441406 193.894531 183.695312 194.496094 184.285156 197.035156 C 184.792969 199.226562 185.183594 201.210938 187.367188 200.855469 C 187.367188 200.855469 188.5 200.808594 196.449219 199.539062 C 206.542969 197.929688 203 198.3125 207.71875 199.566406 C 210.050781 200.183594 230.863281 202.714844 242.835938 193.78125 C 242.996094 193.660156 243.140625 193.511719 243.285156 193.367188 C 246.726562 189.945312 244.875 191.636719 245.613281 189.550781 C 247.367188 184.59375 240.90625 178.070312 235.367188 178.019531 C 235.15625 178.015625 234.964844 177.953125 234.785156 177.851562 C 234.683594 177.796875 234.566406 177.730469 234.601562 177.601562 C 234.613281 177.554688 234.75 177.539062 234.835938 177.523438 C 235.835938 177.34375 239.980469 176.523438 241.449219 176.914062 C 242.046875 177.074219 242.785156 176.890625 244.292969 177.636719 C 244.984375 177.976562 245.140625 177.644531 246.710938 179.515625 C 255.65625 190.207031 236.660156 200.417969 230.269531 207.648438 C 226.464844 211.949219 225.695312 214.984375 218.074219 223.683594 C 211.496094 231.195312 212.222656 232.667969 209.757812 241.855469 C 209.664062 242.21875 207.589844 256.785156 207.070312 258.109375 C 206.765625 258.890625 204.925781 259.261719 204.953125 259.011719 C 205.265625 256.210938 206.386719 253.976562 207.398438 246.835938 C 207.667969 244.925781 207.777344 243.097656 206.824219 241.691406 C 203.632812 236.960938 195.363281 233.566406 194.707031 230.910156 C 194.648438 230.664062 194.417969 230.378906 194.65625 230.1875 C 194.8125 230.0625 195.085938 230.25 195.304688 230.308594 C 195.691406 230.417969 198.371094 231.230469 199.796875 231.238281 C 205.800781 231.269531 208.152344 226.789062 211.445312 222.117188 C 212.839844 220.136719 215.855469 217.046875 214.121094 213.519531 C 212.121094 209.460938 212.972656 208.402344 209.738281 205.789062 C 208.261719 204.59375 206.53125 203.945312 204.710938 203.515625 C 191.523438 200.386719 192.0625 204.761719 179.347656 201.4375 C 178.539062 201.226562 172.238281 200.640625 165.582031 195.351562 C 165.355469 195.171875 165.117188 195.007812 164.871094 194.851562 C 163.457031 193.9375 162.132812 192.90625 160.832031 191.835938 C 160.3125 191.40625 159.578125 190.832031 159.257812 190.132812 C 159.214844 190.042969 159.355469 189.957031 159.402344 189.972656 C 159.5625 190.035156 159.730469 190.09375 159.871094 190.1875 C 165.566406 194.121094 165.515625 194.476562 173.332031 196.566406 C 173.46875 196.601562 173.667969 196.714844 173.726562 196.582031 C 173.882812 196.21875 172.933594 195.53125 172.136719 195.316406 C 170.992188 195.007812 170.9375 195.078125 168.117188 193.921875 C 162.015625 191.417969 157.542969 180.109375 147.625 185.808594 C 146.324219 186.558594 145.03125 185.65625 145.507812 184.363281 C 146.320312 182.152344 149.199219 179.410156 150.820312 172.417969 C 151.761719 168.34375 150.832031 164.5 150.328125 162.089844 C 150.304688 161.980469 150.414062 161.84375 150.527344 161.871094 C 151.679688 162.160156 152.871094 160.316406 152.878906 161.253906 C 152.882812 162.042969 153.082031 162.800781 153.210938 163.574219 C 153.210938 163.574219 153.304688 164.527344 154.304688 172.175781 C 156.769531 184.601562 167.507812 157.429688 168.148438 156.039062 C 170.230469 151.527344 168.539062 153.574219 175.726562 141.265625 C 175.8125 141.117188 175.914062 140.960938 176.046875 140.859375 C 177.074219 140.101562 178.003906 139.226562 178.992188 138.421875 C 179.035156 138.386719 179.085938 138.347656 179.140625 138.332031 C 179.289062 138.292969 179.382812 138.398438 179.363281 138.496094 C 179.339844 138.605469 179.308594 138.722656 179.246094 138.8125 C 177.6875 141.175781 176.636719 143.761719 176.375 144.28125 C 169.613281 157.671875 177.257812 146.1875 169.492188 158.945312 C 168.117188 161.207031 166.890625 163.546875 165.761719 165.9375 C 159.824219 178.523438 168.894531 179.011719 171.203125 176.554688 C 171.507812 176.230469 182.910156 163.429688 183.539062 163.234375 C 187.851562 161.902344 190.242188 159 191.847656 157.433594 C 193.0625 156.25 192.386719 155.945312 198.1875 150.898438 C 208.628906 141.816406 211.441406 137.464844 210.347656 138.414062 C 209.238281 139.378906 208.125 140.417969 207.621094 140.519531 L 207.628906 140.527344 C 217.417969 120.308594 208.816406 119.945312 208.972656 120.308594 C 208.960938 120.285156 208.945312 120.238281 208.957031 120.226562 C 208.992188 120.195312 209.046875 120.140625 209.082031 120.148438 C 218.792969 122.042969 217.710938 127.386719 217.707031 130.925781 C 217.480469 131.714844 217.539062 132.535156 217.441406 133.339844 C 217.261719 134.859375 216.203125 140.414062 216.136719 140.777344 C 216.058594 141.195312 215.800781 141.328125 214.789062 142.074219 C 205.648438 148.804688 200.164062 152.375 190.167969 162.445312 C 189.125 163.492188 188.179688 164.007812 186.632812 166.03125 C 185.835938 167.078125 186.292969 167.769531 185.441406 168.601562 C 183.148438 170.832031 178.164062 176.59375 172.476562 184.585938 C 171.808594 185.523438 170.289062 187.796875 171.113281 188.640625 C 172.117188 189.660156 174.109375 192.761719 175.308594 192.226562 C 175.761719 192.023438 175.882812 192.128906 177.980469 190.785156 C 179.273438 189.957031 180.535156 189.078125 181.765625 188.15625 C 181.765625 188.15625 183.785156 186.683594 183.785156 186.683594 C 184.617188 186.101562 185.457031 185.53125 186.292969 184.953125 C 187.078125 184.410156 187.859375 183.859375 188.65625 183.328125 C 189.449219 182.796875 190.265625 182.292969 191.0625 181.765625 C 191.375 181.558594 191.667969 181.316406 191.972656 181.097656 C 192.296875 180.867188 192.644531 180.761719 193.039062 180.875 C 195.34375 181.527344 196.765625 180.320312 202.261719 177.402344 C 205.417969 175.730469 206.773438 174.34375 209.085938 172.921875 C 210.761719 171.886719 212.398438 170.773438 213.90625 169.507812 C 214.960938 168.625 216.109375 167.914062 217.253906 167.179688 C 218.425781 166.425781 219.570312 165.632812 220.703125 164.828125 C 227.097656 160.273438 229.101562 158.714844 230.871094 151.855469 C 231.058594 145.882812 231.058594 145.882812 229.0625 138.773438 L 229.050781 138.785156 " fill-opacity="1" fill-rule="nonzero"/><path fill="#7a4a43" d="M 177.996094 219.90625 C 178.003906 220.132812 177.867188 220.28125 177.726562 220.429688 C 176.332031 221.933594 174.746094 223.179688 172.917969 224.113281 C 171.808594 224.679688 170.6875 225.234375 169.503906 225.625 C 168.984375 225.796875 168.597656 226.15625 168.226562 226.503906 C 167.230469 227.441406 166.269531 228.40625 165.320312 229.390625 C 164.960938 229.761719 164.671875 230.203125 164.367188 230.625 C 163.195312 232.257812 162.1875 233.984375 161.359375 235.8125 C 160.964844 236.683594 160.578125 237.5625 160.25 238.460938 C 159.691406 239.984375 159.144531 241.515625 158.65625 243.066406 C 158.109375 244.808594 157.636719 246.570312 157.128906 248.324219 C 156.753906 249.632812 156.402344 250.953125 155.992188 252.25 C 155.652344 253.332031 155.402344 254.429688 155.175781 255.539062 C 155.128906 255.765625 155.082031 255.992188 155.027344 256.214844 C 154.980469 256.410156 155.066406 256.6875 154.878906 256.785156 C 154.632812 256.910156 154.371094 256.734375 154.152344 256.621094 C 153.683594 256.378906 153.445312 256.003906 153.425781 255.4375 C 153.386719 254.292969 153.5625 253.1875 153.851562 252.089844 C 154.351562 250.183594 154.839844 248.273438 155.289062 246.359375 C 155.757812 244.359375 156.167969 242.347656 156.617188 240.339844 C 156.824219 239.410156 157.070312 238.484375 157.273438 237.554688 C 157.625 235.96875 157.964844 234.386719 158.285156 232.796875 C 158.398438 232.234375 158.433594 231.652344 158.503906 231.078125 C 158.570312 230.5625 158.59375 230.035156 158.71875 229.535156 C 158.851562 228.988281 158.84375 228.441406 158.855469 227.890625 C 158.867188 227.425781 158.847656 226.960938 158.863281 226.5 C 158.882812 225.792969 158.75 225.117188 158.527344 224.449219 C 158.265625 223.683594 158.015625 222.910156 157.761719 222.136719 C 157.734375 222.054688 157.699219 221.972656 157.691406 221.890625 C 157.691406 221.839844 157.71875 221.765625 157.757812 221.742188 C 157.796875 221.722656 157.878906 221.726562 157.917969 221.753906 C 158.304688 222.058594 158.6875 222.363281 159.070312 222.675781 C 159.210938 222.789062 159.347656 222.886719 159.539062 222.871094 C 159.5625 222.96875 159.621094 223.023438 159.714844 223.046875 C 159.804688 223.289062 159.988281 223.390625 160.234375 223.394531 C 160.292969 223.453125 160.351562 223.511719 160.414062 223.570312 C 160.429688 223.585938 160.449219 223.601562 160.46875 223.613281 C 160.445312 223.601562 160.421875 223.59375 160.402344 223.582031 C 160.34375 223.523438 160.285156 223.464844 160.226562 223.402344 C 160.125 223.175781 159.957031 223.054688 159.703125 223.058594 C 159.679688 222.964844 159.625 222.90625 159.527344 222.882812 C 159.453125 222.609375 159.21875 222.46875 159.019531 222.308594 C 158.144531 221.601562 157.328125 220.824219 156.464844 220.105469 C 155.578125 219.363281 154.820312 218.484375 153.886719 217.796875 C 153.5625 217.558594 153.300781 217.234375 153.011719 216.953125 C 151.734375 215.695312 150.355469 214.546875 149.132812 213.234375 C 148.996094 213.085938 148.851562 212.945312 148.710938 212.800781 C 148.605469 212.691406 148.5625 212.554688 148.5625 212.40625 L 148.550781 212.414062 C 148.605469 212.4375 148.667969 212.449219 148.710938 212.484375 C 149.230469 212.949219 149.765625 213.394531 150.257812 213.882812 C 151.390625 215.007812 152.660156 215.972656 153.929688 216.9375 C 155.039062 217.78125 156.210938 218.53125 157.4375 219.191406 C 158.148438 219.574219 158.898438 219.902344 159.648438 220.207031 C 160.453125 220.535156 161.277344 220.8125 162.097656 221.101562 C 163.167969 221.480469 164.273438 221.648438 165.414062 221.691406 C 166.132812 221.71875 166.847656 221.71875 167.566406 221.691406 C 168.414062 221.660156 169.226562 221.488281 170.050781 221.34375 C 171.417969 221.105469 172.503906 220.371094 173.582031 219.566406 C 174.351562 218.992188 174.980469 218.261719 175.738281 217.679688 C 176.011719 217.472656 176.183594 217.144531 176.425781 216.898438 C 177.804688 215.519531 178.949219 213.949219 180.101562 212.386719 C 181.101562 211.035156 182.050781 209.648438 183.03125 208.28125 C 183.320312 207.882812 183.628906 207.5 183.9375 207.117188 C 184.007812 207.027344 184.101562 206.949219 184.199219 206.890625 C 184.316406 206.816406 184.449219 206.699219 184.59375 206.78125 C 184.792969 206.890625 184.71875 207.0625 184.683594 207.238281 C 184.472656 208.300781 184.03125 209.28125 183.652344 210.285156 C 183.164062 211.558594 182.542969 212.777344 181.921875 213.992188 C 181.855469 214.117188 181.804688 214.257812 181.65625 214.320312 L 181.667969 214.332031 C 181.652344 214.09375 181.722656 213.878906 181.828125 213.671875 C 181.949219 213.4375 182.039062 213.195312 182.003906 212.925781 C 182.027344 212.921875 182.050781 212.917969 182.066406 212.902344 C 182.078125 212.894531 182.078125 212.871094 182.085938 212.855469 C 182.0625 212.882812 182.039062 212.910156 182.015625 212.9375 C 181.730469 213.195312 181.554688 213.527344 181.367188 213.851562 C 180.753906 214.902344 180.167969 215.96875 179.410156 216.929688 C 178.765625 217.746094 178.15625 218.589844 177.433594 219.347656 C 176.664062 220.144531 175.796875 220.816406 174.925781 221.484375 C 173.726562 222.40625 172.4375 223.171875 171.035156 223.75 C 168.898438 224.628906 166.695312 225.160156 164.375 225.136719 C 164.257812 225.136719 164.144531 225.136719 164.027344 225.148438 C 163.972656 225.15625 163.921875 225.1875 163.871094 225.210938 C 163.90625 225.246094 163.9375 225.300781 163.984375 225.316406 C 164.617188 225.523438 165.277344 225.597656 165.9375 225.660156 C 166.726562 225.734375 167.5 225.570312 168.261719 225.4375 C 169.34375 225.25 170.40625 224.9375 171.417969 224.5 C 173.621094 223.546875 175.59375 222.253906 177.300781 220.550781 C 177.523438 220.328125 177.71875 220.070312 178.007812 219.914062 L 177.996094 219.90625 " fill-opacity="1" fill-rule="nonzero"/><path fill="#7a4a43" d="M 166.683594 147.15625 C 167.015625 146.753906 167.265625 146.296875 167.492188 145.835938 C 168.070312 144.652344 168.882812 143.625 169.640625 142.566406 C 170.402344 141.507812 171.234375 140.503906 172.035156 139.472656 C 172.105469 139.382812 172.191406 139.300781 172.269531 139.214844 C 173.792969 137.460938 175.445312 135.828125 177.09375 134.195312 C 177.628906 133.664062 178.140625 133.101562 178.710938 132.609375 C 180.082031 131.441406 181.285156 130.097656 182.605469 128.875 C 183.328125 128.207031 184.089844 127.585938 184.835938 126.941406 C 185.738281 126.167969 186.636719 125.390625 187.539062 124.621094 C 188.53125 123.777344 189.535156 122.941406 190.527344 122.101562 C 190.683594 121.96875 190.835938 121.832031 190.964844 121.675781 C 191.457031 121.105469 191.972656 120.554688 192.410156 119.941406 C 192.652344 119.597656 192.707031 119.261719 192.558594 118.878906 C 192.484375 118.691406 192.417969 118.496094 192.359375 118.300781 C 192.347656 118.253906 192.371094 118.195312 192.378906 118.140625 C 192.445312 118.179688 192.519531 118.210938 192.578125 118.257812 C 192.625 118.292969 192.648438 118.351562 192.691406 118.382812 C 192.742188 118.417969 192.804688 118.375 192.785156 118.304688 C 192.746094 118.140625 192.714844 117.957031 192.621094 117.820312 C 191.972656 116.894531 191.347656 115.949219 190.398438 115.285156 C 190.113281 115.085938 189.859375 114.847656 189.605469 114.609375 C 189.554688 114.5625 189.539062 114.449219 189.546875 114.375 C 189.558594 114.285156 189.632812 114.226562 189.734375 114.238281 C 190.726562 114.363281 191.636719 114.734375 192.488281 115.246094 C 192.96875 115.53125 193.328125 115.949219 193.597656 116.445312 C 194.089844 117.347656 194.351562 118.328125 194.546875 119.324219 C 194.703125 120.121094 194.867188 120.910156 194.921875 121.726562 C 194.941406 122.039062 195.058594 122.347656 195.125 122.65625 C 195.207031 123.011719 195.1875 123.058594 194.917969 123.226562 C 194.082031 123.75 193.226562 124.242188 192.414062 124.800781 C 191.21875 125.617188 190.011719 126.425781 188.894531 127.339844 C 188.003906 128.070312 187.039062 128.742188 186.394531 129.738281 C 186.332031 129.832031 186.238281 129.90625 186.15625 129.988281 C 185.4375 130.707031 184.832031 131.523438 184.171875 132.292969 C 183.328125 133.28125 182.535156 134.328125 181.457031 135.09375 C 181.222656 135.257812 181.046875 135.503906 180.828125 135.695312 C 179.941406 136.480469 179.042969 137.257812 178.15625 138.042969 C 177.980469 138.195312 177.820312 138.367188 177.65625 138.53125 C 176.703125 139.460938 175.703125 140.34375 174.667969 141.183594 C 174.558594 141.273438 174.460938 141.382812 174.355469 141.484375 C 172.957031 142.832031 171.457031 144.0625 169.933594 145.269531 C 169.277344 145.792969 168.597656 146.285156 167.890625 146.738281 C 167.515625 146.976562 167.128906 147.15625 166.675781 147.148438 L 166.683594 147.15625 " fill-opacity="1" fill-rule="nonzero"/><path fill="#7a4a43" d="M 133.089844 142.425781 C 131.835938 142.425781 130.558594 142.933594 129.394531 143.746094 C 128.605469 144.296875 127.917969 144.957031 127.351562 145.746094 C 127.183594 145.980469 126.96875 146.179688 126.769531 146.390625 C 126.367188 146.816406 126.304688 146.851562 125.90625 146.328125 C 125.679688 146.035156 125.539062 145.671875 125.640625 145.269531 C 126.105469 143.433594 126.761719 141.675781 127.78125 140.0625 C 128.472656 138.96875 129.386719 138.183594 130.558594 137.644531 C 131.050781 137.421875 131.558594 137.324219 132.066406 137.257812 C 133.074219 137.117188 134.074219 137.183594 135.050781 137.585938 C 136.507812 138.179688 137.875 138.925781 139.183594 139.792969 C 139.59375 140.066406 139.992188 140.359375 140.414062 140.617188 C 141.585938 141.335938 142.585938 142.257812 143.53125 143.246094 C 143.933594 143.664062 144.347656 144.070312 144.746094 144.492188 C 145.601562 145.402344 146.472656 146.296875 147.289062 147.238281 C 147.800781 147.824219 148.21875 148.496094 148.695312 149.113281 C 148.867188 149.335938 148.851562 149.523438 148.730469 149.75 C 148.511719 150.160156 148.3125 150.578125 148.105469 150.996094 C 147.738281 151.753906 147.335938 152.492188 147.042969 153.285156 C 147.011719 153.359375 146.949219 153.460938 146.886719 153.472656 C 146.832031 153.480469 146.730469 153.394531 146.695312 153.328125 C 146.339844 152.660156 145.90625 152.042969 145.46875 151.425781 C 144.78125 150.457031 144.066406 149.507812 143.207031 148.675781 C 142.894531 148.375 142.585938 148.070312 142.285156 147.75 C 141.390625 146.796875 140.386719 145.960938 139.335938 145.1875 C 138.632812 144.675781 137.917969 144.179688 137.191406 143.703125 C 136.386719 143.171875 135.507812 142.8125 134.574219 142.5625 C 134.140625 142.445312 133.714844 142.445312 133.089844 142.425781 " fill-opacity="1" fill-rule="nonzero"/><path fill="#000000" d="M 193.691406 179.265625 C 175.445312 192.230469 175.304688 193.023438 173.847656 191.375 C 172.015625 189.296875 170.597656 188.429688 171.382812 187.097656 C 177.484375 176.808594 192.335938 160.222656 198.332031 160.28125 C 199.929688 160.296875 202.820312 162.132812 203.300781 164.863281 C 204.339844 170.792969 198.597656 175.78125 193.691406 179.265625 " fill-opacity="1" fill-rule="nonzero"/><path fill="#000000" d="M 189.027344 152.496094 C 188.339844 154.007812 187.058594 156.453125 184.296875 160.203125 C 170.0625 179.550781 168.773438 177.972656 166.820312 176.6875 C 163.703125 174.632812 163.507812 174.398438 163.5 173.808594 C 163.445312 169.855469 171.578125 156.308594 173.640625 152.941406 C 175.5 149.90625 178.414062 146.335938 179.28125 145.328125 C 180.152344 144.316406 181.0625 143.335938 182.152344 142.542969 C 186.890625 139.101562 191.886719 146.242188 189.027344 152.496094 " fill-opacity="1" fill-rule="nonzero"/><path fill="#000000" d="M 218.234375 185.183594 C 221.578125 185.917969 223.28125 188.675781 221.6875 192.496094 C 220.792969 194.648438 217.621094 195.496094 215.210938 196.023438 C 214.820312 196.109375 196.199219 199.648438 187.382812 200.320312 C 186.394531 200.398438 185.742188 200.160156 185.371094 199.320312 C 185.132812 198.785156 184.9375 198.554688 184.285156 195.484375 C 183.972656 194.003906 184.679688 193.257812 188.265625 191.769531 C 194.011719 189.378906 200.929688 186.652344 210.488281 185.410156 C 214.457031 184.894531 215.570312 184.597656 218.234375 185.183594 " fill-opacity="1" fill-rule="nonzero"/><path fill="#000000" d="M 166.644531 144.320312 C 166.003906 145.113281 162.359375 149.558594 161.59375 150.40625 C 153.578125 159.25 151.515625 161.847656 150.15625 161.144531 C 146.246094 159.121094 145.960938 158.714844 146.128906 157.890625 C 147.363281 151.746094 154.730469 140.082031 158.320312 134.730469 C 161.742188 129.628906 166.785156 127.929688 170.035156 131.03125 C 170.53125 131.507812 170.824219 132.105469 171.046875 132.738281 C 172.480469 136.828125 169.386719 140.945312 166.644531 144.320312 " fill-opacity="1" fill-rule="nonzero"/><path fill="#000000" d="M 129.820312 128.238281 C 131.0625 130.296875 131.644531 131.625 133.875 135.941406 C 133.964844 136.117188 133.863281 136.324219 133.671875 136.324219 C 128.636719 136.308594 126.730469 139.0625 125.257812 143.902344 C 124.53125 146.28125 125.117188 144.917969 126.367188 151.59375 C 126.734375 153.558594 125.183594 154.050781 124.445312 151.886719 C 121.445312 143.105469 120.90625 141.765625 119.3125 128.691406 C 119.289062 128.488281 119.277344 128.277344 119.320312 128.082031 C 119.546875 127 119.238281 125.675781 120.285156 125.671875 C 120.527344 125.667969 120.65625 125.566406 120.675781 125.3125 C 120.835938 123.449219 122.582031 122.671875 124.417969 121.804688 C 125.296875 121.390625 125.640625 121.316406 129.820312 128.238281 " fill-opacity="1" fill-rule="nonzero"/><path fill="#ffffff" d="M 165.539062 172.003906 C 165.515625 171.96875 165.464844 171.929688 165.457031 171.882812 C 165.40625 171.636719 165.53125 171.429688 165.609375 171.214844 C 165.917969 170.371094 166.234375 169.527344 166.558594 168.6875 C 166.816406 168.011719 167.085938 167.339844 167.351562 166.664062 C 168.167969 164.585938 169.027344 162.523438 169.960938 160.492188 C 171.054688 158.109375 172.417969 155.890625 174.03125 153.820312 C 175.53125 151.898438 177.082031 150.023438 178.625 148.136719 C 179.699219 146.828125 180.972656 145.730469 182.207031 144.589844 C 182.25 144.550781 182.296875 144.519531 182.34375 144.484375 C 182.523438 144.359375 182.710938 144.304688 182.914062 144.410156 C 183.074219 144.492188 183.105469 144.777344 182.96875 145.042969 C 182.859375 145.25 182.726562 145.441406 182.59375 145.628906 C 181.457031 147.242188 180.277344 148.820312 179.058594 150.371094 C 177.734375 152.0625 176.578125 153.875 175.425781 155.6875 C 174.261719 157.523438 173.121094 159.378906 172 161.242188 C 171.042969 162.832031 170.117188 164.445312 169.195312 166.054688 C 168.398438 167.4375 167.609375 168.824219 166.890625 170.25 C 166.589844 170.84375 166.210938 171.398438 165.769531 171.902344 C 165.714844 171.964844 165.648438 172.03125 165.539062 172.003906 " fill-opacity="1" fill-rule="nonzero"/><path fill="#ffffff" d="M 196.542969 162.074219 C 196.90625 162.082031 197.121094 162.414062 196.984375 162.695312 C 196.933594 162.796875 196.867188 162.898438 196.789062 162.980469 C 196.472656 163.320312 196.15625 163.652344 195.765625 163.917969 C 194.304688 164.917969 192.9375 166.035156 191.625 167.230469 C 190.058594 168.660156 188.558594 170.15625 187.109375 171.695312 C 185.65625 173.238281 184.195312 174.769531 182.832031 176.398438 C 181.867188 177.554688 180.828125 178.648438 179.847656 179.796875 C 178.753906 181.078125 177.628906 182.324219 176.464844 183.542969 C 176.066406 183.957031 175.722656 184.433594 175.363281 184.886719 C 175.015625 185.316406 174.636719 185.714844 174.222656 186.082031 C 174.191406 186.109375 174.125 186.097656 174.074219 186.105469 C 174.066406 186.050781 174.035156 185.984375 174.054688 185.949219 C 174.351562 185.414062 174.636719 184.878906 174.957031 184.359375 C 176.214844 182.335938 177.644531 180.433594 179.113281 178.5625 C 179.828125 177.648438 180.539062 176.730469 181.269531 175.828125 C 181.742188 175.242188 182.230469 174.667969 182.734375 174.109375 C 183.6875 173.054688 184.601562 171.964844 185.636719 170.984375 C 186.332031 170.324219 186.984375 169.621094 187.679688 168.964844 C 188.589844 168.113281 189.527344 167.289062 190.453125 166.453125 C 190.691406 166.238281 190.921875 166.019531 191.15625 165.804688 C 192.390625 164.65625 193.703125 163.605469 195.050781 162.597656 C 195.511719 162.253906 196.039062 162.132812 196.542969 162.074219 " fill-opacity="1" fill-rule="nonzero"/><path fill="#ffffff" d="M 136.328125 190.390625 C 136.371094 190.421875 136.433594 190.445312 136.460938 190.492188 C 136.566406 190.664062 136.667969 190.84375 136.761719 191.023438 C 137.195312 191.84375 137.636719 192.660156 138.054688 193.488281 C 138.5 194.375 139.003906 195.214844 139.648438 195.976562 C 141.210938 197.8125 142.558594 199.8125 144.023438 201.722656 C 144.90625 202.875 145.839844 203.984375 146.765625 205.105469 C 147.558594 206.066406 148.363281 207.019531 149.167969 207.972656 C 149.558594 208.4375 149.949219 208.910156 150.355469 209.363281 C 151.597656 210.746094 152.847656 212.121094 154.09375 213.496094 C 154.71875 214.179688 155.351562 214.863281 155.976562 215.546875 C 156.015625 215.589844 156.054688 215.632812 156.089844 215.679688 C 156.183594 215.796875 156.25 215.921875 156.1875 216.078125 C 156.140625 216.207031 155.960938 216.21875 155.730469 216.109375 C 155.304688 215.910156 154.921875 215.648438 154.566406 215.347656 C 154.011719 214.878906 153.464844 214.398438 152.941406 213.898438 C 151.136719 212.175781 149.347656 210.429688 147.648438 208.597656 C 146.410156 207.253906 145.226562 205.859375 144 204.503906 C 143.300781 203.730469 142.632812 202.925781 141.988281 202.101562 C 141.09375 200.957031 140.242188 199.78125 139.542969 198.503906 C 139.199219 197.871094 138.902344 197.199219 138.65625 196.519531 C 138.265625 195.457031 137.796875 194.425781 137.328125 193.398438 C 136.941406 192.550781 136.539062 191.710938 136.28125 190.816406 C 136.25 190.707031 136.234375 190.59375 136.21875 190.480469 C 136.214844 190.457031 136.238281 190.425781 136.257812 190.40625 C 136.273438 190.394531 136.304688 190.394531 136.328125 190.390625 " fill-opacity="1" fill-rule="nonzero"/><path fill="#ffffff" d="M 148.128906 155.59375 C 148.101562 155.527344 148.050781 155.464844 148.0625 155.425781 C 148.203125 154.984375 148.320312 154.53125 148.5 154.105469 C 149.167969 152.53125 149.832031 150.953125 150.617188 149.429688 C 151.597656 147.519531 152.511719 145.574219 153.578125 143.707031 C 154.8125 141.535156 156.128906 139.414062 157.691406 137.464844 C 158.851562 136.011719 160.144531 134.683594 161.664062 133.589844 C 162.417969 133.046875 163.128906 132.449219 163.875 131.898438 C 164.222656 131.640625 164.605469 131.429688 164.972656 131.199219 C 165.097656 131.125 165.242188 131.089844 165.390625 131.121094 C 165.417969 131.125 165.457031 131.140625 165.464844 131.160156 C 165.472656 131.207031 165.492188 131.285156 165.46875 131.304688 C 165.144531 131.589844 164.820312 131.882812 164.476562 132.148438 C 163.253906 133.097656 162.222656 134.230469 161.289062 135.460938 C 159.535156 137.773438 157.933594 140.191406 156.378906 142.640625 C 155.511719 144.015625 154.621094 145.371094 153.765625 146.753906 C 152.285156 149.148438 150.828125 151.554688 149.355469 153.953125 C 149.035156 154.46875 148.6875 154.96875 148.34375 155.46875 C 148.300781 155.53125 148.203125 155.550781 148.128906 155.59375 " fill-opacity="1" fill-rule="nonzero"/><path fill="#ffffff" d="M 218.300781 187.0625 C 218.292969 187.089844 218.292969 187.132812 218.273438 187.144531 C 218.171875 187.195312 218.070312 187.269531 217.964844 187.28125 C 217.214844 187.347656 216.464844 187.425781 215.710938 187.449219 C 214.636719 187.476562 213.578125 187.59375 212.515625 187.769531 C 212.003906 187.855469 211.484375 187.886719 210.964844 187.953125 C 210.074219 188.066406 209.195312 188.257812 208.316406 188.421875 C 205.210938 189 202.152344 189.777344 199.082031 190.507812 C 197.109375 190.976562 195.140625 191.453125 193.1875 191.996094 C 192.011719 192.324219 190.886719 192.792969 189.734375 193.175781 C 189.183594 193.359375 188.632812 193.542969 188.082031 193.71875 C 188.035156 193.734375 187.972656 193.699219 187.917969 193.6875 C 187.929688 193.644531 187.929688 193.589844 187.953125 193.558594 C 187.988281 193.515625 188.042969 193.488281 188.09375 193.457031 C 188.320312 193.328125 188.542969 193.191406 188.777344 193.078125 C 189.453125 192.75 190.152344 192.453125 190.816406 192.097656 C 192.074219 191.425781 193.394531 190.910156 194.71875 190.390625 C 197.75 189.203125 200.898438 188.441406 204.070312 187.753906 C 205.660156 187.414062 207.257812 187.144531 208.863281 186.957031 C 211.945312 186.597656 211.886719 186.53125 215.453125 186.609375 C 216.175781 186.625 216.894531 186.707031 217.617188 186.777344 C 217.816406 186.796875 218.007812 186.882812 218.199219 186.949219 C 218.242188 186.960938 218.269531 187.023438 218.300781 187.0625 " fill-opacity="1" fill-rule="nonzero"/><path fill="#ffffff" d="M 129.730469 159.199219 C 129.78125 159.269531 129.863281 159.332031 129.875 159.40625 C 130.148438 161.042969 130.613281 162.625 131.097656 164.207031 C 131.625 165.898438 132.019531 167.625 132.375 169.359375 C 132.707031 170.980469 132.988281 172.605469 133.261719 174.238281 C 133.480469 175.550781 133.757812 176.859375 133.992188 178.171875 C 134.214844 179.398438 134.429688 180.625 134.625 181.859375 C 134.816406 183.089844 134.96875 184.328125 134.984375 185.578125 C 134.988281 185.867188 135.070312 186.152344 135.109375 186.4375 C 135.117188 186.488281 135.082031 186.546875 135.0625 186.597656 C 135.035156 186.554688 134.996094 186.515625 134.980469 186.46875 C 134.46875 185.167969 134.097656 183.824219 133.75 182.476562 C 133.230469 180.453125 132.722656 178.425781 132.253906 176.390625 C 131.925781 174.980469 131.660156 173.550781 131.453125 172.117188 C 131.183594 170.25 130.886719 168.390625 130.628906 166.523438 C 130.417969 164.972656 130.253906 163.414062 130.058594 161.863281 C 129.980469 161.257812 129.863281 160.660156 129.78125 160.058594 C 129.746094 159.773438 129.753906 159.480469 129.742188 159.191406 L 129.730469 159.199219 " fill-opacity="1" fill-rule="nonzero"/><path fill="#ffffff" d="M 218.753906 183.269531 C 218.609375 183.269531 218.40625 183.273438 218.203125 183.269531 C 218.121094 183.265625 218.011719 183.25 218.03125 183.140625 C 218.042969 183.070312 218.117188 182.984375 218.183594 182.957031 C 218.503906 182.824219 218.828125 182.691406 219.160156 182.597656 C 221.054688 182.058594 222.949219 181.53125 224.847656 180.996094 C 225.265625 180.878906 225.679688 180.753906 226.089844 180.605469 C 227.859375 179.953125 229.671875 179.449219 231.5 178.996094 C 232.144531 178.832031 232.796875 178.707031 233.472656 178.710938 C 234.429688 178.71875 235.375 178.558594 236.320312 178.4375 C 236.636719 178.394531 236.953125 178.347656 237.269531 178.433594 C 237.339844 178.453125 237.421875 178.523438 237.460938 178.589844 C 237.523438 178.714844 237.4375 178.820312 237.339844 178.878906 C 237.195312 178.972656 237.042969 179.054688 236.882812 179.113281 C 236.550781 179.226562 236.21875 179.316406 235.882812 179.417969 C 234.582031 179.808594 233.289062 180.25 231.972656 180.585938 C 229.167969 181.300781 226.351562 181.96875 223.535156 182.640625 C 222.523438 182.878906 221.496094 183.0625 220.453125 183.132812 C 219.90625 183.171875 219.363281 183.308594 218.753906 183.269531 " fill-opacity="1" fill-rule="nonzero"/><path fill="#ffffff" d="M 186.171875 114.507812 C 186.285156 114.542969 186.351562 114.546875 186.390625 114.582031 C 186.414062 114.605469 186.421875 114.695312 186.398438 114.71875 C 186.210938 114.914062 185.957031 114.980469 185.703125 115.050781 C 184.304688 115.433594 182.90625 115.808594 181.554688 116.335938 C 180.765625 116.640625 179.945312 116.828125 179.117188 116.972656 C 177.265625 117.300781 175.558594 118.007812 173.9375 118.933594 C 173.464844 119.207031 173.03125 119.566406 172.605469 119.910156 C 171.316406 120.949219 170.023438 121.976562 168.769531 123.050781 C 167.558594 124.09375 166.378906 125.171875 165.265625 126.320312 C 164.722656 126.882812 164.164062 127.433594 163.535156 127.910156 C 163.46875 127.960938 163.402344 128.015625 163.328125 128.066406 C 163.25 128.121094 163.148438 128.113281 163.097656 128.042969 C 163.054688 127.980469 163.019531 127.871094 163.046875 127.808594 C 163.191406 127.457031 163.429688 127.164062 163.667969 126.871094 C 164.566406 125.761719 165.558594 124.746094 166.578125 123.75 C 167.910156 122.457031 169.203125 121.121094 170.597656 119.890625 C 171.21875 119.34375 171.882812 118.902344 172.675781 118.65625 C 173.257812 118.480469 173.828125 118.265625 174.410156 118.082031 C 175.742188 117.664062 177.019531 117.121094 178.261719 116.480469 C 179.746094 115.714844 181.324219 115.265625 182.972656 115.027344 C 183.832031 114.902344 184.683594 114.734375 185.542969 114.59375 C 185.769531 114.554688 186 114.53125 186.171875 114.507812 " fill-opacity="1" fill-rule="nonzero"/><path fill="#ffffff" d="M 198.847656 158.023438 C 198.828125 158 198.804688 157.980469 198.796875 157.957031 C 198.789062 157.929688 198.792969 157.890625 198.808594 157.871094 C 199.339844 157.21875 199.953125 156.640625 200.578125 156.074219 C 201.203125 155.511719 201.875 155.003906 202.492188 154.429688 C 203.808594 153.203125 205.203125 152.070312 206.515625 150.839844 C 207.65625 149.769531 208.773438 148.664062 210.058594 147.753906 C 212 146.378906 213.914062 144.964844 215.984375 143.785156 C 217.21875 143.082031 218.492188 142.441406 219.75 141.78125 C 220.082031 141.605469 220.433594 141.464844 220.8125 141.410156 C 220.890625 141.398438 221.011719 141.414062 221.050781 141.464844 C 221.136719 141.578125 221.039062 141.679688 220.957031 141.75 C 220.78125 141.898438 220.605469 142.050781 220.410156 142.175781 C 219.898438 142.507812 219.378906 142.824219 218.863281 143.148438 C 216.085938 144.894531 213.363281 146.722656 210.695312 148.625 C 209.585938 149.414062 208.53125 150.285156 207.457031 151.125 C 205.582031 152.585938 203.695312 154.03125 201.839844 155.519531 C 200.867188 156.300781 199.875 157.054688 198.996094 157.945312 C 198.957031 157.984375 198.898438 158 198.847656 158.023438 " fill-opacity="1" fill-rule="nonzero"/><path fill="#ffffff" d="M 182.199219 138.535156 C 182.175781 138.519531 182.144531 138.507812 182.136719 138.484375 C 182.125 138.464844 182.128906 138.429688 182.136719 138.40625 C 182.40625 137.855469 182.75 137.351562 183.136719 136.882812 C 184.179688 135.601562 185.277344 134.363281 186.429688 133.175781 C 187.582031 131.992188 188.71875 130.785156 189.847656 129.582031 C 190.285156 129.117188 190.703125 128.628906 191.117188 128.144531 C 192 127.113281 193.082031 126.347656 194.285156 125.742188 C 196.019531 124.867188 197.746094 123.972656 199.5 123.132812 C 200.59375 122.605469 201.726562 122.152344 202.84375 121.671875 C 203.242188 121.5 203.644531 121.335938 204.050781 121.179688 C 204.089844 121.164062 204.175781 121.203125 204.199219 121.238281 C 204.214844 121.269531 204.191406 121.355469 204.160156 121.386719 C 204.054688 121.484375 203.945312 121.585938 203.824219 121.660156 C 203.292969 121.960938 202.765625 122.261719 202.226562 122.546875 C 200.089844 123.65625 197.988281 124.828125 195.925781 126.074219 C 194.785156 126.765625 193.75 127.613281 192.660156 128.386719 C 190.074219 130.234375 187.824219 132.457031 185.648438 134.753906 C 184.511719 135.953125 183.441406 137.214844 182.339844 138.445312 C 182.304688 138.484375 182.246094 138.503906 182.199219 138.535156 " fill-opacity="1" fill-rule="nonzero"/><path fill="#ffffff" d="M 129.570312 158.3125 C 129.375 158.175781 129.414062 157.96875 129.410156 157.773438 C 129.410156 157.722656 129.445312 157.671875 129.464844 157.621094 C 129.488281 157.660156 129.53125 157.691406 129.535156 157.730469 C 129.550781 157.925781 129.550781 158.125 129.5625 158.324219 L 129.570312 158.3125 " fill-opacity="1" fill-rule="nonzero"/><path fill="#ffffff" d="M 129.742188 159.191406 C 129.613281 159.101562 129.582031 158.96875 129.578125 158.824219 C 129.574219 158.652344 129.574219 158.484375 129.570312 158.3125 L 129.5625 158.324219 C 129.828125 158.574219 129.699219 158.902344 129.730469 159.199219 L 129.742188 159.191406 " fill-opacity="1" fill-rule="nonzero"/><path fill="#ffffff" d="M 129.140625 156.03125 C 129.15625 156.082031 129.179688 156.132812 129.175781 156.179688 C 129.167969 156.261719 129.121094 156.277344 129.09375 156.214844 C 129.078125 156.171875 129.089844 156.113281 129.09375 156.0625 C 129.09375 156.050781 129.125 156.042969 129.140625 156.03125 " fill-opacity="1" fill-rule="nonzero"/><path fill="#ffffff" d="M 129.328125 156.90625 C 129.335938 156.957031 129.359375 157.015625 129.351562 157.0625 C 129.332031 157.144531 129.28125 157.152344 129.261719 157.078125 C 129.246094 157.027344 129.265625 156.96875 129.273438 156.917969 C 129.273438 156.910156 129.308594 156.910156 129.328125 156.90625 " fill-opacity="1" fill-rule="nonzero"/><g clip-path="url(#4c8d36d4d6)"><path fill="#000000" d="M 212.925781 185.277344 C 217.582031 184.648438 222.671875 185.769531 222.03125 190.4375 C 221.566406 193.855469 220.167969 195.121094 211.355469 196.53125 C 191.105469 199.773438 186.328125 201.296875 185.488281 199.136719 C 185.105469 198.140625 185.4375 199.414062 184.519531 195.710938 C 184.167969 194.285156 184.566406 194.03125 185.339844 193.5 C 187.25 192.191406 197.371094 187.375 212.925781 185.277344 Z M 195.164062 161.441406 C 196.132812 160.867188 197.207031 160.605469 198.308594 160.511719 C 199.433594 160.414062 200.710938 161.390625 201.574219 162.152344 C 203.929688 164.21875 204.269531 169.246094 199.34375 174.238281 C 196.042969 177.585938 193.65625 178.984375 184.957031 185.199219 C 175.4375 192.003906 175.28125 192.628906 173.753906 190.96875 C 171.632812 188.660156 170.996094 188.207031 171.535156 187.257812 C 175.761719 179.828125 186.976562 166.3125 195.164062 161.441406 Z M 174.167969 150.824219 C 174.160156 150.863281 174.144531 151.042969 174.109375 151.035156 C 174.027344 151.027344 174 150.96875 174.167969 150.824219 Z M 184.078125 162.175781 C 184.0625 162.195312 184.046875 162.214844 184.03125 162.234375 C 184.046875 162.1875 184.027344 162.191406 184.078125 162.175781 Z M 170.144531 176.5625 C 169.292969 177.25 168.425781 177.328125 167.476562 176.847656 C 167.171875 176.691406 165.277344 175.4375 164.1875 174.566406 C 163.289062 173.851562 163.140625 172.902344 167.234375 164.597656 C 168.882812 161.265625 174.136719 151.722656 179.109375 145.878906 C 179.957031 144.882812 180.816406 143.894531 181.835938 143.066406 C 182.355469 142.644531 182.921875 142.292969 183.539062 142.027344 C 184.425781 141.652344 185.296875 141.703125 186.140625 142.148438 C 186.921875 142.5625 187.574219 143.140625 188.097656 143.851562 C 189.890625 146.300781 190.296875 149.355469 188.816406 152.507812 C 185.933594 158.636719 174.542969 173 170.144531 176.5625 Z M 239.003906 199.632812 C 225.03125 210.664062 228.273438 212.058594 218.261719 223.273438 C 211.230469 231.152344 211.273438 231.996094 207.113281 257.511719 C 207.003906 258.183594 206.648438 258.621094 205.964844 258.765625 C 205.070312 258.960938 202.820312 259.582031 200.402344 259.707031 C 198.316406 259.816406 190.574219 261.546875 172.394531 259.335938 C 166.179688 258.578125 161.765625 258.300781 154.796875 256.710938 C 153.808594 256.484375 153.433594 255.90625 153.5 254.945312 C 153.726562 251.597656 160.507812 230.035156 158.652344 224.324219 C 157.667969 221.292969 157.394531 221.671875 159.746094 223.351562 C 159.859375 223.4375 161.253906 224.410156 161.355469 224.308594 C 161.429688 224.238281 161.386719 224.15625 161.332031 224.089844 C 161.332031 224.089844 152.722656 217.03125 146.835938 210.535156 C 141.1875 204.296875 136.5625 197.613281 134.410156 189.902344 C 133.609375 187.023438 132.957031 184.105469 132.355469 181.179688 C 129.289062 166.316406 130.644531 170.816406 128.824219 162.542969 C 128.570312 161.382812 128.21875 160.242188 127.988281 159.074219 C 126.023438 149.261719 127.007812 151.535156 125.824219 145.949219 C 125.609375 144.925781 127.433594 137.925781 132.058594 137.394531 C 132.855469 137.304688 133.125 137.054688 134.785156 137.640625 C 140.90625 139.800781 144.363281 144.738281 147.5625 149.050781 C 147.648438 149.164062 147.742188 149.28125 147.816406 149.402344 C 148.902344 151.164062 146.882812 151.222656 145.324219 157.644531 C 145.066406 158.699219 145.796875 159.261719 146.742188 159.757812 C 150.832031 161.910156 150.148438 162.664062 152.167969 161.460938 C 152.433594 161.304688 152.523438 161.53125 152.523438 161.835938 C 152.53125 162.714844 152.859375 168.527344 154.335938 173.148438 C 155.082031 175.488281 150.539062 180.898438 148.957031 182.703125 C 148.632812 183.078125 147.625 184.015625 147.523438 184.3125 C 148.230469 184.347656 153.671875 179.511719 154.734375 175.511719 C 154.878906 174.972656 155.140625 175.800781 156.320312 176.148438 C 156.46875 176.195312 156.480469 176.277344 156.433594 176.40625 C 156.089844 177.335938 155.96875 178.320312 155.734375 179.273438 C 155.363281 180.796875 154.839844 182.269531 154.320312 183.742188 C 154.238281 183.980469 154.117188 184.210938 154.136719 184.472656 C 154.71875 183.863281 157 179.035156 156.945312 176.554688 C 156.941406 176.351562 157.046875 176.210938 157.238281 176.183594 C 158.230469 176.039062 159.589844 175.355469 160.933594 173.484375 C 162.363281 171.492188 162.070312 171.191406 164.738281 164.8125 C 166.320312 161.035156 169.769531 151.480469 173.609375 145.246094 C 176.765625 140.125 174.675781 142.230469 178.363281 139.171875 C 180.019531 137.796875 179.046875 138.242188 175.292969 146 C 174.675781 147.277344 173.019531 150.679688 173.144531 152.023438 C 173.242188 153.101562 168.980469 158.816406 166.183594 164.734375 C 162.558594 172.410156 161.652344 173.671875 164.101562 175.535156 C 169.59375 179.71875 168.964844 179.28125 176.613281 170.96875 C 176.691406 170.882812 176.773438 170.800781 176.859375 170.722656 C 176.964844 170.621094 177.070312 170.648438 177.101562 170.800781 C 177.40625 172.316406 178.046875 173.726562 178.527344 175.1875 C 178.75 175.863281 179.492188 175.652344 177.769531 170.28125 C 177.671875 169.964844 177.691406 169.738281 177.921875 169.496094 C 181.460938 165.753906 182.125 163.882812 183.449219 163.445312 C 188.195312 161.871094 190.769531 159.011719 193.929688 155.144531 C 195.664062 153.023438 196.152344 153.046875 205.554688 144.390625 C 206.539062 143.484375 207.457031 142.515625 208.289062 141.464844 C 210.875 138.195312 211.167969 138.261719 211.273438 137.570312 C 208.398438 138.976562 197.777344 150.042969 194.058594 153.484375 C 193.246094 154.234375 192.53125 155.078125 191.84375 155.933594 C 188.117188 160.570312 184.742188 162.207031 184.113281 162.152344 C 184.246094 161.792969 184.515625 161.527344 184.765625 161.253906 C 190.136719 155.371094 193.65625 146.113281 187.222656 141.527344 C 185.878906 140.570312 184.394531 140.410156 182.867188 141.140625 C 181.777344 141.660156 180.863281 142.417969 180.058594 143.304688 C 178.828125 144.667969 176.949219 146.972656 174.523438 150.453125 C 174.425781 150.59375 174.351562 150.753906 174.171875 150.8125 C 174.121094 149.980469 177.230469 143.601562 177.960938 142.234375 C 180.136719 138.144531 181.570312 136.738281 185.644531 132.152344 C 190.523438 126.660156 201.195312 118.894531 207.597656 120.148438 C 217.886719 122.167969 217.871094 125.527344 217.5 131.515625 C 217.347656 133.949219 215.921875 141.058594 215.984375 140.695312 C 215.894531 141.207031 216.105469 140.914062 210.011719 145.378906 C 205.34375 148.796875 202.148438 151.003906 199.878906 153.183594 C 197.527344 155.4375 186.308594 164.859375 185.980469 167.1875 C 185.890625 167.816406 185.582031 168.296875 185.128906 168.753906 C 182.265625 171.644531 171.992188 183.695312 170.761719 187.476562 C 170.613281 187.933594 170.679688 188.359375 170.972656 188.707031 C 173.460938 191.652344 174.351562 193.027344 175.996094 192.125 C 180.984375 189.382812 182.199219 187.445312 182.484375 188.300781 C 183.28125 190.664062 183.226562 190.847656 183.488281 190.785156 C 183.640625 190.75 183.484375 190.476562 183.476562 190.3125 C 183.339844 187.917969 182.625 187.730469 183.257812 187.265625 C 197.445312 176.855469 189.285156 183.90625 201.136719 178.140625 C 203.3125 177.082031 205.328125 175.777344 207.261719 174.324219 C 207.910156 173.839844 208.585938 173.382812 209.277344 172.953125 C 213.445312 170.363281 214.136719 169.257812 216.058594 168.085938 C 220.929688 165.121094 226.925781 160.378906 228.023438 159.257812 C 228.222656 159.050781 228.085938 158.78125 227.753906 158.980469 C 226.9375 159.476562 226.125 159.984375 225.300781 160.472656 C 218.726562 164.40625 216.898438 167.5625 202.878906 176.074219 C 198.582031 178.679688 194.46875 180.15625 193.957031 180.023438 C 193.988281 179.972656 194.007812 179.910156 194.046875 179.878906 C 194.5625 179.496094 195.085938 179.132812 195.589844 178.742188 C 197.214844 177.472656 198.839844 176.199219 200.25 174.6875 C 205.214844 169.363281 204.828125 164.339844 202.835938 161.992188 C 198.699219 157.117188 194.929688 160.167969 190.199219 164.152344 C 188.445312 165.628906 188.417969 165.789062 188.128906 165.8125 C 192.695312 160.765625 196.910156 157.804688 199.890625 154.839844 C 204.769531 149.980469 217.480469 140.78125 223.203125 138.351562 C 224.058594 137.992188 224.988281 137.851562 225.882812 137.617188 C 226.253906 137.523438 227.386719 137.898438 227.707031 138.089844 C 230.089844 139.5 232.054688 139.539062 233.652344 141.707031 C 238.71875 148.582031 233.746094 156.957031 228.773438 167.640625 C 222.828125 180.410156 226.171875 178.910156 222.828125 179.574219 C 222.59375 179.621094 222.4375 179.523438 222.371094 179.28125 C 222.03125 178.019531 222.414062 175.640625 222.417969 174.953125 C 222.417969 174.886719 222.351562 174.847656 222.296875 174.90625 C 221.972656 175.269531 221.507812 176.710938 221.386719 178.054688 C 221.261719 179.453125 222.257812 179.703125 221.453125 179.925781 C 219.957031 180.335938 208.460938 183.296875 206.175781 185.105469 C 205.328125 185.777344 204.777344 185.53125 200.105469 186.824219 C 197.46875 187.558594 185.773438 191.1875 183.957031 193.285156 C 183.632812 193.660156 183.503906 194.078125 183.601562 194.574219 C 185.144531 202.28125 185.238281 201.128906 190.34375 200.589844 C 195.0625 200.09375 203.820312 198.238281 204.65625 198.644531 C 210.109375 201.296875 225.929688 200.359375 227.289062 200.078125 C 227.476562 200.035156 227.605469 200.152344 227.714844 200.3125 C 228.421875 201.359375 229.367188 202.175781 230.347656 202.953125 C 232.167969 204.402344 233.136719 203.761719 231.867188 203 C 230.683594 202.289062 229.734375 201.304688 228.789062 200.320312 C 228.539062 200.058594 228.667969 199.910156 228.976562 199.894531 C 229.339844 199.875 236.585938 199.195312 236.816406 198.5625 C 236.457031 198.257812 235.949219 198.433594 233.492188 198.730469 C 232.886719 198.804688 232.28125 198.835938 231.675781 198.914062 C 221.878906 200.207031 207.058594 198.921875 206.597656 198.238281 C 206.558594 198.179688 206.585938 198.15625 206.667969 198.148438 C 207.878906 198.011719 209.09375 197.914062 210.292969 197.726562 C 216.566406 196.753906 217.871094 196.21875 220.070312 195.117188 C 224.871094 192.707031 225.4375 182.585938 213.242188 184.222656 C 213.167969 184.230469 209.238281 184.84375 209.21875 184.785156 C 209.179688 184.683594 209.3125 184.679688 209.429688 184.636719 C 215.007812 182.460938 220.398438 181.535156 231.445312 178.496094 C 235.429688 177.398438 236.191406 177.421875 238.078125 177.136719 C 246.367188 175.878906 249.027344 182.273438 248.90625 185.707031 C 248.730469 190.589844 242.949219 196.519531 239.003906 199.632812 Z M 124.613281 145.273438 C 124.183594 144.777344 120.945312 131.425781 120.875 125.640625 C 120.855469 124.074219 121.914062 123.15625 124.585938 121.945312 C 125.296875 121.621094 125.84375 122.082031 129.808594 128.628906 C 131.039062 130.65625 133.582031 135.820312 133.621094 135.96875 C 133.652344 136.074219 133.574219 136.132812 133.488281 136.132812 C 132.757812 136.113281 132.042969 136.269531 131.332031 136.371094 C 126.171875 137.125 125.175781 144.125 124.613281 145.273438 Z M 125.164062 151.347656 C 124.242188 150.707031 119.828125 131.246094 120.234375 129.859375 C 120.253906 129.910156 120.285156 129.957031 120.296875 130.007812 C 122.738281 142.066406 125.59375 150.320312 125.164062 151.347656 Z M 159.199219 133.886719 C 165.421875 125.304688 177.230469 130.785156 167.460938 142.929688 C 162.355469 149.28125 162.480469 149.046875 160.085938 151.742188 C 151.375 161.542969 150.949219 161.464844 149.972656 160.839844 C 148.746094 160.054688 146.238281 158.960938 146.308594 158.234375 C 146.421875 157.078125 147.070312 155.40625 147.511719 154.339844 C 150.171875 147.90625 155.214844 139.382812 159.199219 133.886719 Z M 173.105469 143.867188 C 172.949219 144.230469 166.210938 156.414062 163.363281 165.546875 C 163.101562 166.382812 162.78125 167.1875 162.386719 167.96875 C 160.863281 170.972656 161.296875 170.492188 159.0625 173.351562 C 158.472656 174.105469 157.609375 174.488281 156.808594 174.953125 C 156.601562 175.074219 156.425781 175.015625 156.289062 174.800781 C 153.984375 171.195312 154.722656 162.242188 153.984375 160.308594 C 153.832031 159.914062 153.917969 160.164062 157.613281 156.195312 C 164.398438 148.90625 164.054688 148.136719 164.953125 148.195312 C 168.082031 148.410156 169.316406 147.058594 173.105469 143.867188 Z M 175.617188 116.460938 C 180.894531 114.453125 184.949219 114.261719 186.269531 114.160156 C 188.6875 113.96875 191.136719 116.457031 192.46875 118.382812 C 192.539062 118.480469 192.792969 118.871094 192.878906 118.78125 C 193.492188 118.121094 191.160156 115.441406 189.609375 114.550781 C 189.519531 114.5 189.4375 114.425781 189.355469 114.359375 C 190.476562 114.402344 191.484375 114.785156 192.425781 115.378906 C 193.902344 116.304688 194.425781 118.847656 194.875 122.242188 C 194.910156 122.488281 195.132812 122.75 194.941406 122.984375 C 194.941406 122.984375 191.414062 125.175781 188.996094 127.074219 C 185.765625 129.605469 183.933594 132.6875 182.25 134.207031 C 169.265625 145.9375 168.070312 147.101562 165.578125 147.308594 C 165.15625 147.347656 165.550781 147 167.109375 145.074219 C 169.050781 142.675781 173.289062 138.058594 172.332031 133.667969 C 171.121094 128.121094 165.253906 126.511719 159.820312 131.90625 C 159.625 132.101562 159.410156 132.285156 159.203125 132.472656 C 159.421875 131.816406 164.996094 120.5 175.617188 116.460938 Z M 189.292969 114.332031 C 189.242188 114.3125 189.191406 114.296875 189.136719 114.277344 C 189.195312 114.257812 189.175781 114.226562 189.292969 114.332031 Z M 245.5 177.34375 C 244.238281 176.769531 241.296875 174.140625 233.6875 176.5625 C 227.46875 178.539062 227.742188 178.398438 225.9375 178.855469 C 225.472656 178.976562 225.441406 178.492188 226.074219 176.484375 C 227.679688 171.410156 233.402344 162.457031 235.804688 155.089844 C 239.765625 142.945312 232.410156 135.429688 223.488281 137.289062 C 221.117188 137.785156 219.078125 139.101562 217.503906 140.019531 C 217.300781 140.140625 217.21875 140.011719 217.253906 139.863281 C 221.660156 121.835938 216.882812 121.003906 207.28125 119.003906 C 206.210938 118.78125 205.136719 118.789062 204.074219 118.917969 C 200.171875 119.398438 196.714844 122.121094 196.105469 122.25 C 195.886719 122.0625 195.695312 120.832031 195.601562 120.460938 C 194.773438 117.128906 194.613281 115.722656 193.167969 114.640625 C 191.386719 113.308594 189.3125 112.578125 184.578125 113.074219 C 182.546875 113.285156 180.570312 113.683594 178.644531 114.339844 C 176.472656 115.082031 174.347656 115.9375 172.242188 116.847656 C 170.351562 117.664062 168.679688 118.78125 167.246094 120.261719 C 160.003906 127.710938 156.183594 136.929688 156.421875 136.566406 C 155.769531 137.558594 155.121094 138.558594 154.46875 139.554688 C 146.933594 151.042969 150.769531 149.582031 146.5625 145.210938 C 143.464844 141.996094 140.976562 138.015625 134.734375 136.320312 C 134.246094 136.1875 134.371094 136.253906 132.425781 132.125 C 131.621094 130.414062 130.703125 128.765625 129.769531 127.121094 C 125.84375 120.203125 125.230469 119.058594 119.785156 124.21875 C 118.417969 125.515625 119.027344 129.445312 119.253906 130.976562 C 120.183594 137.234375 122.46875 149.171875 125.589844 154.59375 C 125.761719 154.894531 125.828125 155.242188 125.894531 155.589844 C 126.167969 157.042969 126.378906 158.507812 126.730469 159.945312 C 129.132812 169.835938 127.207031 162.605469 130.917969 180.402344 C 131.558594 183.46875 132.214844 186.535156 133.03125 189.5625 C 133.730469 192.148438 134.632812 194.660156 135.84375 197.050781 C 136.804688 198.945312 137.9375 200.738281 139.132812 202.488281 C 145.035156 211.125 151.792969 216.539062 154.5625 219.101562 C 160.28125 224.386719 157.929688 228.15625 153.925781 248.921875 C 152.511719 256.257812 151.734375 257 155.761719 257.980469 C 165.917969 260.453125 173.035156 260.902344 175.117188 261.136719 C 186.554688 262.425781 197.800781 261.589844 206.324219 259.648438 C 207.925781 259.28125 207.953125 258.21875 208.683594 253.539062 C 209.515625 248.214844 209.8125 248.851562 210.390625 244.742188 C 210.527344 243.769531 210.527344 242.773438 210.910156 241.84375 C 210.910156 241.84375 211.199219 239.890625 211.289062 239.347656 C 212 235.132812 212.085938 234.089844 214.238281 229.378906 C 214.871094 227.988281 217.953125 225.03125 219.804688 223.054688 C 224.1875 218.367188 227.519531 212.308594 229.457031 210.382812 C 231.816406 208.035156 234.03125 205.125 235.753906 203.761719 C 238.0625 201.929688 246.328125 195.898438 249.046875 189.835938 C 251.425781 184.535156 248.699219 178.804688 245.5 177.34375 " fill-opacity="1" fill-rule="nonzero"/></g><path fill="#000000" d="M 182.71875 211.210938 C 182.078125 212.546875 181.269531 213.792969 180.488281 215.050781 C 173.417969 226.4375 163.648438 224.792969 163.1875 225.0625 C 164.058594 225.992188 170.429688 226.824219 176.707031 221.328125 C 180.019531 218.421875 182.664062 212.863281 182.875 211.03125 C 182.820312 211.089844 182.75 211.140625 182.71875 211.210938 " fill-opacity="1" fill-rule="nonzero"/><path fill="#000000" d="M 182.875 211.03125 C 182.878906 211.03125 182.886719 211.023438 182.886719 211.019531 C 182.890625 211.015625 182.890625 211.003906 182.890625 211 C 182.886719 211.003906 182.882812 211.007812 182.878906 211.011719 C 182.875 211.019531 182.875 211.027344 182.875 211.03125 " fill-opacity="1" fill-rule="nonzero"/><path fill="#000000" d="M 210.445312 235.210938 C 210.082031 235.222656 207.707031 236.957031 202.296875 235.585938 C 196.960938 234.238281 195.089844 231.25 194.039062 230.566406 C 194.03125 231.1875 199.253906 238.175781 208.183594 236.820312 C 208.9375 236.707031 210.667969 235.960938 210.601562 235.375 C 210.589844 235.285156 210.546875 235.207031 210.445312 235.210938 " fill-opacity="1" fill-rule="nonzero"/><path fill="#000000" d="M 222.070312 213.847656 C 217.859375 210.984375 214.617188 206.203125 213.925781 205.578125 C 213.820312 205.484375 213.746094 205.597656 213.78125 205.671875 C 214.851562 207.992188 222.472656 217.125 223.992188 215.316406 C 223.9375 215.023438 223.84375 215.050781 222.070312 213.847656 " fill-opacity="1" fill-rule="nonzero"/><path fill="#000000" d="M 207.367188 151.347656 C 207.050781 151.367188 206.875 151.628906 207.050781 151.859375 C 209.972656 155.675781 210.714844 157.242188 211.050781 156.824219 C 211.347656 156.457031 208.277344 151.296875 207.367188 151.347656 " fill-opacity="1" fill-rule="nonzero"/><path fill="#000000" d="M 234.292969 180.574219 C 234.246094 180.441406 234.160156 180.316406 234.070312 180.210938 C 233.90625 180.015625 233.617188 180.191406 233.664062 180.390625 C 233.832031 181.066406 233.996094 181.742188 234.195312 182.402344 C 234.699219 184.0625 235.222656 185.71875 235.53125 187.433594 C 235.539062 187.488281 235.5625 187.546875 235.597656 187.585938 C 235.632812 187.628906 235.6875 187.667969 235.738281 187.667969 C 235.769531 187.664062 235.820312 187.59375 235.824219 187.554688 C 235.84375 187.378906 235.847656 187.207031 235.851562 187.109375 C 235.871094 186.304688 235.71875 185.59375 235.601562 184.882812 C 235.351562 183.390625 234.820312 181.980469 234.292969 180.574219 " fill-opacity="1" fill-rule="nonzero"/><path fill="#000000" d="M 214.644531 126.875 C 214.753906 127.023438 214.941406 127.074219 215.003906 127 C 215.417969 126.503906 212.6875 122.964844 210.21875 122.140625 C 209.726562 122.425781 211.265625 123.128906 212.847656 124.761719 C 213.492188 125.429688 214.089844 126.128906 214.644531 126.875 " fill-opacity="1" fill-rule="nonzero"/><path fill="#000000" d="M 192.160156 129.988281 C 191.832031 130.351562 192.09375 130.152344 194.835938 132.242188 C 195.730469 132.921875 196.714844 133.492188 197.515625 134.296875 C 197.648438 134.433594 197.816406 134.328125 197.730469 134.160156 C 196.960938 132.578125 192.796875 129.910156 192.160156 129.988281 " fill-opacity="1" fill-rule="nonzero"/><path fill="#000000" d="M 233.453125 144.445312 C 233.390625 144.097656 230.539062 140.679688 229.628906 140.144531 C 229.117188 139.84375 228.886719 140.335938 229.15625 140.660156 C 229.292969 140.828125 233.25 144.578125 233.453125 144.445312 " fill-opacity="1" fill-rule="nonzero"/><path fill="#000000" d="M 208.890625 237.480469 C 206.414062 238.242188 207.140625 238.109375 204.566406 238.253906 C 204.441406 238.261719 204.453125 238.363281 204.539062 238.417969 C 204.890625 238.648438 205.28125 238.582031 206.070312 238.582031 C 206.070312 238.585938 206.070312 238.589844 206.070312 238.597656 C 206.390625 238.597656 206.710938 238.613281 207.027344 238.589844 C 208.136719 238.519531 209.394531 237.941406 209.257812 237.578125 C 209.191406 237.402344 209.035156 237.433594 208.890625 237.480469 " fill-opacity="1" fill-rule="nonzero"/><path fill="#000000" d="M 224.332031 213.90625 C 223.6875 213.488281 222.992188 213.011719 222.746094 213.410156 C 222.4375 213.898438 224.1875 214.714844 224.425781 214.210938 C 224.480469 214.089844 224.425781 213.96875 224.332031 213.90625 " fill-opacity="1" fill-rule="nonzero"/><path fill="#000000" d="M 154.125 184.507812 C 154.128906 184.503906 154.132812 184.5 154.136719 184.496094 C 154.136719 184.488281 154.136719 184.480469 154.136719 184.472656 C 154.132812 184.480469 154.128906 184.480469 154.125 184.484375 C 154.125 184.492188 154.125 184.5 154.125 184.507812 " fill-opacity="1" fill-rule="nonzero"/><path fill="#000000" d="M 154.109375 184.648438 C 154.117188 184.601562 154.121094 184.554688 154.125 184.507812 C 153.878906 184.71875 154.085938 184.777344 154.109375 184.648438 " fill-opacity="1" fill-rule="nonzero"/><path fill="#000000" d="M 182.910156 210.863281 C 182.902344 210.910156 182.898438 210.953125 182.890625 211 C 182.925781 210.96875 182.964844 210.941406 182.988281 210.90625 C 183.050781 210.8125 182.933594 210.742188 182.910156 210.863281 " fill-opacity="1" fill-rule="nonzero"/><path fill="#000000" d="M 147.472656 184.386719 C 147.480469 184.386719 147.488281 184.355469 147.5 184.328125 C 147.433594 184.355469 147.417969 184.378906 147.472656 184.386719 " fill-opacity="1" fill-rule="nonzero"/><path fill="#000000" d="M 147.5 184.328125 C 147.507812 184.328125 147.511719 184.324219 147.515625 184.320312 C 147.519531 184.316406 147.519531 184.316406 147.523438 184.3125 C 147.515625 184.308594 147.511719 184.3125 147.507812 184.3125 C 147.503906 184.316406 147.503906 184.324219 147.5 184.328125 " fill-opacity="1" fill-rule="nonzero"/><path fill="#000000" d="M 211.320312 137.492188 C 211.316406 137.492188 211.304688 137.523438 211.292969 137.546875 C 211.359375 137.523438 211.371094 137.503906 211.320312 137.492188 " fill-opacity="1" fill-rule="nonzero"/><path fill="#000000" d="M 211.292969 137.546875 C 211.289062 137.550781 211.285156 137.550781 211.277344 137.554688 C 211.277344 137.558594 211.273438 137.566406 211.273438 137.570312 C 211.277344 137.570312 211.28125 137.566406 211.289062 137.5625 C 211.289062 137.558594 211.292969 137.550781 211.292969 137.546875 " fill-opacity="1" fill-rule="nonzero"/><path fill="#000000" d="M 193.863281 230.375 C 193.84375 230.363281 193.824219 230.351562 193.800781 230.339844 C 193.851562 230.382812 194.039062 230.566406 194.039062 230.566406 C 194.042969 230.5625 194.039062 230.558594 194.039062 230.550781 C 193.980469 230.492188 193.921875 230.433594 193.863281 230.375 " fill-opacity="1" fill-rule="nonzero"/><path fill="#000000" d="M 174.867188 122.804688 C 175.011719 122.941406 175.164062 123.074219 175.378906 123.066406 C 175.105469 122.140625 171.210938 118.699219 170.785156 119.335938 C 170.707031 119.445312 170.753906 119.554688 170.855469 119.632812 C 172.539062 120.984375 173.433594 121.472656 174.867188 122.804688 " fill-opacity="1" fill-rule="nonzero"/><path fill="#000000" d="M 175.449219 123.113281 C 175.429688 123.097656 175.410156 123.085938 175.394531 123.070312 C 175.386719 123.070312 175.386719 123.066406 175.378906 123.066406 C 175.378906 123.074219 175.382812 123.074219 175.382812 123.082031 C 175.40625 123.089844 175.425781 123.101562 175.449219 123.113281 " fill-opacity="1" fill-rule="nonzero"/></svg>