<svg xmlns="http://www.w3.org/2000/svg" xmlns:xlink="http://www.w3.org/1999/xlink" width="190" zoomAndPan="magnify" viewBox="85 180 200 1" height="50" preserveAspectRatio="xMidYMid meet" version="1.0"><defs><g/><clipPath id="9101c584b0"><path d="M 167 124 L 207 124 L 207 178 L 167 178 Z M 167 124 " clip-rule="nonzero"/></clipPath><clipPath id="4c3d3850bd"><path d="M 194.753906 124.605469 L 206.828125 131.890625 L 179.539062 177.109375 L 167.464844 169.820312 Z M 194.753906 124.605469 " clip-rule="nonzero"/></clipPath><clipPath id="cd00ff49dc"><path d="M 194.753906 124.605469 L 206.828125 131.890625 L 179.539062 177.109375 L 167.464844 169.820312 Z M 194.753906 124.605469 " clip-rule="nonzero"/></clipPath><clipPath id="3affedfddf"><path d="M 168 131 L 196 131 L 196 159 L 168 159 Z M 168 131 " clip-rule="nonzero"/></clipPath><clipPath id="19a12dfd7c"><path d="M 178.839844 131.804688 L 195.296875 141.738281 L 185.175781 158.5 L 168.722656 148.570312 Z M 178.839844 131.804688 " clip-rule="nonzero"/></clipPath><clipPath id="c4fffdca2f"><path d="M 178.839844 131.804688 L 195.296875 141.738281 L 185.175781 158.5 L 168.722656 148.570312 Z M 178.839844 131.804688 " clip-rule="nonzero"/></clipPath><clipPath id="47104ffa6b"><path d="M 187 133 L 214 133 L 214 159 L 187 159 Z M 187 133 " clip-rule="nonzero"/></clipPath><clipPath id="1394268d09"><path d="M 197.007812 133.59375 L 213.460938 143.527344 L 204.421875 158.5 L 187.96875 148.570312 Z M 197.007812 133.59375 " clip-rule="nonzero"/></clipPath><clipPath id="5fe0538e7e"><path d="M 197.007812 133.59375 L 213.460938 143.527344 L 204.421875 158.5 L 187.96875 148.570312 Z M 197.007812 133.59375 " clip-rule="nonzero"/></clipPath></defs><g clip-path="url(#9101c584b0)"><g clip-path="url(#4c3d3850bd)"><g clip-path="url(#cd00ff49dc)"><path fill="#ffffff" d="M 194.753906 124.605469 L 206.828125 131.890625 L 179.539062 177.109375 L 167.464844 169.820312 Z M 194.753906 124.605469 " fill-opacity="1" fill-rule="nonzero"/></g></g></g><g clip-path="url(#3affedfddf)"><g clip-path="url(#19a12dfd7c)"><g clip-path="url(#c4fffdca2f)"><path fill="#ffffff" d="M 178.839844 131.804688 L 195.296875 141.738281 L 185.175781 158.5 L 168.722656 148.570312 Z M 178.839844 131.804688 " fill-opacity="1" fill-rule="nonzero"/></g></g></g><g clip-path="url(#47104ffa6b)"><g clip-path="url(#1394268d09)"><g clip-path="url(#5fe0538e7e)"><path fill="#ffffff" d="M 197.007812 133.59375 L 213.460938 143.527344 L 204.421875 158.5 L 187.96875 148.570312 Z M 197.007812 133.59375 " fill-opacity="1" fill-rule="nonzero"/></g></g></g><g fill="#ff66c4" fill-opacity="1"><g transform="translate(97.545737, 190.939)"><g><path d="M 16.34375 -18.585938 L 16.34375 -5.546875 C 16.34375 -4.945312 16.34375 -4.289062 16.398438 -3.609375 C 15.933594 -4.152344 15.46875 -4.671875 15.03125 -5.164062 L 3.5 -18.722656 L 2.734375 -18.722656 L 2.734375 0 L 4.535156 0 L 4.535156 -13.226562 C 4.535156 -13.855469 4.507812 -14.429688 4.453125 -15.003906 C 4.917969 -14.484375 5.382812 -13.964844 5.792969 -13.472656 L 17.355469 0.136719 L 18.148438 0.136719 L 18.148438 -18.585938 Z M 16.34375 -18.585938 "/></g></g></g><g fill="#ff66c4" fill-opacity="1"><g transform="translate(119.353697, 190.939)"><g><path d="M 9.621094 -18.722656 L 9.019531 -18.722656 L 0.382812 -0.0546875 L 0.382812 0 L 2.269531 0 L 4.234375 -4.261719 L 14.402344 -4.261719 L 16.371094 0 L 18.257812 0 L 18.257812 -0.0546875 Z M 9.320312 -15.550781 C 9.648438 -14.675781 9.976562 -13.855469 10.359375 -13.0625 L 13.636719 -5.902344 L 4.972656 -5.902344 L 8.28125 -13.0625 C 8.664062 -13.882812 8.964844 -14.703125 9.320312 -15.550781 Z M 9.320312 -15.550781 "/></g></g></g><g fill="#ff66c4" fill-opacity="1"><g transform="translate(138.920756, 190.939)"><g><path d="M 2.734375 0 L 4.535156 0 L 4.535156 -18.585938 L 2.734375 -18.585938 Z M 2.734375 0 "/></g></g></g><g fill="#ff66c4" fill-opacity="1"><g transform="translate(147.119308, 190.939)"><g><path d="M 2.734375 0 L 13.5 0 L 13.5 -1.640625 L 4.535156 -1.640625 L 4.535156 -18.585938 L 2.734375 -18.585938 Z M 2.734375 0 "/></g></g></g><g fill="#ff66c4" fill-opacity="1"><g transform="translate(162.368526, 190.939)"><g><path d="M 7.953125 0.328125 C 11.371094 0.328125 14.101562 -1.613281 14.101562 -4.863281 C 14.101562 -8.007812 11.453125 -9.375 8.390625 -10.46875 C 6.148438 -11.261719 3.90625 -12.078125 3.90625 -14.347656 C 3.90625 -16.289062 5.847656 -17.246094 7.84375 -17.246094 C 9.59375 -17.246094 11.070312 -16.753906 12.570312 -15.6875 L 13.390625 -17.054688 C 11.617188 -18.367188 9.839844 -18.914062 7.761719 -18.914062 C 4.753906 -18.914062 2.078125 -17.191406 2.078125 -14.265625 C 2.078125 -11.152344 5 -9.785156 7.734375 -8.828125 C 10.167969 -7.980469 12.296875 -7.078125 12.296875 -4.78125 C 12.296875 -2.570312 10.277344 -1.339844 7.953125 -1.339844 C 5.820312 -1.339844 3.882812 -2.078125 2.488281 -3.335938 L 1.558594 -1.914062 C 3.144531 -0.574219 5.4375 0.328125 7.953125 0.328125 Z M 7.953125 0.328125 "/></g></g></g><g fill="#ff66c4" fill-opacity="1"><g transform="translate(178.792845, 190.939)"><g><path d="M 9.648438 0.328125 C 13.527344 0.328125 16.726562 -1.996094 16.726562 -6.367188 L 16.726562 -18.585938 L 14.921875 -18.585938 L 14.921875 -6.394531 C 14.921875 -2.980469 12.734375 -1.3125 9.648438 -1.3125 C 6.503906 -1.3125 4.316406 -2.980469 4.316406 -6.394531 L 4.316406 -18.585938 L 2.515625 -18.585938 L 2.515625 -6.367188 C 2.515625 -1.996094 5.710938 0.328125 9.648438 0.328125 Z M 9.648438 0.328125 "/></g></g></g><g fill="#ff66c4" fill-opacity="1"><g transform="translate(198.961121, 190.939)"><g><path d="M 10.742188 -7.789062 C 13.773438 -8.253906 15.6875 -10.332031 15.6875 -13.117188 C 15.6875 -16.207031 13.0625 -18.585938 9.757812 -18.585938 L 2.734375 -18.585938 L 2.734375 0 L 4.535156 0 L 4.535156 -7.707031 L 8.746094 -7.707031 L 13.964844 0 L 16.042969 0 L 16.042969 -0.0820312 Z M 4.535156 -9.347656 L 4.535156 -16.945312 L 9.757812 -16.945312 C 12.1875 -16.945312 13.882812 -15.25 13.882812 -13.089844 C 13.882812 -10.878906 12.269531 -9.347656 9.675781 -9.347656 Z M 4.535156 -9.347656 "/></g></g></g><g fill="#ff66c4" fill-opacity="1"><g transform="translate(216.97047, 190.939)"><g><path d="M 4.535156 -1.640625 L 4.535156 -8.71875 L 12.707031 -8.71875 L 12.707031 -10.332031 L 4.535156 -10.332031 L 4.535156 -16.945312 L 13.828125 -16.945312 L 13.828125 -18.585938 L 2.734375 -18.585938 L 2.734375 0 L 14.074219 0 L 14.074219 -1.640625 Z M 4.535156 -1.640625 "/></g></g></g><g fill="#ff66c4" fill-opacity="1"><g transform="translate(233.176172, 190.939)"><g><path d="M 16.34375 -18.585938 L 16.34375 -5.546875 C 16.34375 -4.945312 16.34375 -4.289062 16.398438 -3.609375 C 15.933594 -4.152344 15.46875 -4.671875 15.03125 -5.164062 L 3.5 -18.722656 L 2.734375 -18.722656 L 2.734375 0 L 4.535156 0 L 4.535156 -13.226562 C 4.535156 -13.855469 4.507812 -14.429688 4.453125 -15.003906 C 4.917969 -14.484375 5.382812 -13.964844 5.792969 -13.472656 L 17.355469 0.136719 L 18.148438 0.136719 L 18.148438 -18.585938 Z M 16.34375 -18.585938 "/></g></g></g><g fill="#ff66c4" fill-opacity="1"><g transform="translate(254.984136, 190.939)"><g><path d="M 13.855469 -18.585938 L 0.628906 -18.585938 L 0.628906 -16.945312 L 6.339844 -16.945312 L 6.339844 0 L 8.144531 0 L 8.144531 -16.945312 L 13.855469 -16.945312 Z M 13.855469 -18.585938 "/></g></g></g></svg>